<svg width="100" height="87" viewBox="0 0 100 87" fill="none" xmlns="http://www.w3.org/2000/svg">
<g clip-path="url(#clip0_237_525)">
<mask id="mask0_237_525" style="mask-type:luminance" maskUnits="userSpaceOnUse" x="0" y="0" width="100" height="87">
<path d="M100 0H0V87H100V0Z" fill="white"/>
</mask>
<g mask="url(#mask0_237_525)">
<mask id="mask1_237_525" style="mask-type:luminance" maskUnits="userSpaceOnUse" x="-6" y="-9" width="122" height="120">
<path d="M74.4201 -8.35563L-5.3418 38.9223L36.2172 110.393L115.979 63.1147L74.4201 -8.35563Z" fill="white"/>
</mask>
<g mask="url(#mask1_237_525)">
<path d="M50.6849 35.977L50.0918 33.4737C50.0918 33.4737 63.5259 8.71952 69.0456 2.68055C70.0484 1.5811 71.2513 0.747082 72.8144 0.926642C77.2947 1.44307 74.856 8.57328 74.0098 11.1243C72.6616 15.1915 70.8548 19.109 68.9433 22.9383C67.4527 25.9296 65.8692 28.8758 64.2087 31.7758C62.172 35.3329 59.8857 37.9528 55.9743 39.5825" fill="#0C2518"/>
<path d="M50.6849 35.977L50.0918 33.4737C50.0918 33.4737 63.5259 8.71952 69.0456 2.68055C70.0484 1.5811 71.2513 0.747082 72.8144 0.926642C77.2947 1.44307 74.856 8.57328 74.0098 11.1243C72.6616 15.1915 70.8548 19.109 68.9433 22.9383C67.4527 25.9296 65.8692 28.8758 64.2087 31.7758C62.172 35.3329 59.8857 37.9528 55.9743 39.5825" stroke="#0C2518" stroke-width="0.442991" stroke-miterlimit="10"/>
<path d="M55.9805 47.1374L58.9175 48.0595C58.9175 48.0595 71.3151 70.5702 73.6431 78.3648C74.0497 79.8096 74.1594 81.2596 73.2069 82.5173C70.4354 86.1511 65.6078 80.4435 63.8609 78.407C61.0897 75.2037 58.6482 71.6716 56.3536 68.0982C54.5918 65.2904 54.4957 65.3474 52.8766 62.4126C50.9981 59.1103 50.1436 54.8169 50.5917 50.8283" fill="#0C2518"/>
<path d="M55.9805 47.1374L58.9175 48.0595C58.9175 48.0595 71.3151 70.5702 73.6431 78.3648C74.0497 79.8096 74.1594 81.2596 73.2069 82.5173C70.4354 86.1511 65.6078 80.4435 63.8609 78.407C61.0897 75.2037 58.6482 71.6716 56.3536 68.0982C54.5918 65.2904 54.4957 65.3474 52.8766 62.4126C50.9981 59.1103 50.1436 54.8169 50.5917 50.8283" stroke="#0C2518" stroke-width="0.442991" stroke-miterlimit="10"/>
<path d="M42.4944 40.9194C39.9992 39.1512 37.2347 38.4107 34.0426 38.0531C30.7507 37.667 27.4496 37.4157 24.1374 37.217C19.873 37.015 15.6143 36.9014 11.3562 37.3051C8.6878 37.5469 1.22229 38.1613 2.50166 42.5118C2.94641 44.022 4.17808 44.807 5.57629 45.2763C13.263 47.945 41.0958 50.4049 41.0958 50.4049L43.812 48.3315" fill="#0C2518"/>
<path d="M42.4944 40.9194C39.9992 39.1512 37.2347 38.4107 34.0426 38.0531C30.7507 37.667 27.4496 37.4157 24.1374 37.217C19.873 37.015 15.6143 36.9014 11.3562 37.3051C8.6878 37.5469 1.22229 38.1613 2.50166 42.5118C2.94641 44.022 4.17808 44.807 5.57629 45.2763C13.263 47.945 41.0958 50.4049 41.0958 50.4049L43.812 48.3315" stroke="#0C2518" stroke-width="0.442991" stroke-miterlimit="10"/>
<path d="M53.2774 49.8875C56.8483 47.7709 58.0572 43.1563 55.9778 39.5803C53.8984 36.0043 49.3183 34.8211 45.7473 36.9378C42.1765 39.0543 40.9675 43.669 43.0469 47.245C45.1263 50.8209 49.7066 52.004 53.2774 49.8875Z" fill="#0C2518" stroke="#0C2518" stroke-width="0.442991" stroke-miterlimit="10"/>
<path d="M50.3497 44.8534C51.1439 44.3826 51.4128 43.3562 50.9503 42.5607C50.4878 41.7653 49.469 41.5022 48.6747 41.9729C47.8805 42.4437 47.6115 43.4702 48.074 44.2656C48.5366 45.061 49.5554 45.3242 50.3497 44.8534Z" fill="#76B420"/>
</g>
</g>
</g>
<defs>
<clipPath id="clip0_237_525">
<rect width="100" height="87" fill="white"/>
</clipPath>
</defs>
</svg>
