<svg width="100" height="87" viewBox="0 0 100 87" fill="none" xmlns="http://www.w3.org/2000/svg">
<g clip-path="url(#clip0_12_2)">
<g clip-path="url(#clip1_12_2)">
<path d="M50.685 35.977L50.0919 33.4737C50.0919 33.4737 63.526 8.71952 69.0457 2.68055C70.0485 1.5811 71.2514 0.747081 72.8145 0.926641C77.2948 1.44307 74.8561 8.57328 74.0099 11.1243C72.6617 15.1915 70.8549 19.109 68.9434 22.9383C67.4528 25.9296 65.8693 28.8758 64.2088 31.7758C62.1721 35.3329 59.8858 37.9528 55.9744 39.5825" fill="#E8F1EA"/>
<path d="M50.685 35.977L50.0919 33.4737C50.0919 33.4737 63.526 8.71952 69.0457 2.68055C70.0485 1.5811 71.2514 0.747081 72.8145 0.926641C77.2948 1.44307 74.8561 8.57328 74.0099 11.1243C72.6617 15.1915 70.8549 19.109 68.9434 22.9383C67.4528 25.9296 65.8693 28.8758 64.2088 31.7758C62.1721 35.3329 59.8858 37.9528 55.9744 39.5825" stroke="#E8F1EA" stroke-width="0.442991" stroke-miterlimit="10"/>
<path d="M55.9813 47.1374L58.9183 48.0595C58.9183 48.0595 71.3159 70.5702 73.6439 78.3648C74.0505 79.8096 74.1602 81.2596 73.2077 82.5173C70.4362 86.1511 65.6086 80.4435 63.8617 78.407C61.0905 75.2037 58.649 71.6716 56.3544 68.0982C54.5926 65.2904 54.4965 65.3474 52.8774 62.4126C50.9989 59.1103 50.1444 54.8169 50.5925 50.8283" fill="#E8F1EA"/>
<path d="M55.9813 47.1374L58.9183 48.0595C58.9183 48.0595 71.3159 70.5702 73.6439 78.3648C74.0505 79.8096 74.1602 81.2596 73.2077 82.5173C70.4362 86.1511 65.6086 80.4435 63.8617 78.407C61.0905 75.2037 58.649 71.6716 56.3544 68.0982C54.5926 65.2904 54.4965 65.3474 52.8774 62.4126C50.9989 59.1103 50.1444 54.8169 50.5925 50.8283" stroke="#E8F1EA" stroke-width="0.442991" stroke-miterlimit="10"/>
<path d="M42.4946 40.9194C39.9994 39.1512 37.2349 38.4107 34.0428 38.0531C30.7509 37.667 27.4498 37.4157 24.1376 37.217C19.8732 37.015 15.6145 36.9014 11.3564 37.3051C8.68801 37.5469 1.2225 38.1613 2.50187 42.5118C2.94662 44.022 4.17829 44.807 5.5765 45.2763C13.2632 47.945 41.096 50.4049 41.096 50.4049L43.8122 48.3315" fill="#E8F1EA"/>
<path d="M42.4946 40.9194C39.9994 39.1512 37.2349 38.4107 34.0428 38.0531C30.7509 37.667 27.4498 37.4157 24.1376 37.217C19.8732 37.015 15.6145 36.9014 11.3564 37.3051C8.68801 37.5469 1.2225 38.1613 2.50187 42.5118C2.94662 44.022 4.17829 44.807 5.5765 45.2763C13.2632 47.945 41.096 50.4049 41.096 50.4049L43.8122 48.3315" stroke="#E8F1EA" stroke-width="0.442991" stroke-miterlimit="10"/>
<path d="M53.2783 49.8875C56.8492 47.7709 58.0581 43.1563 55.9787 39.5803C53.8993 36.0043 49.3192 34.8211 45.7482 36.9378C42.1774 39.0543 40.9684 43.669 43.0478 47.245C45.1272 50.8209 49.7075 52.004 53.2783 49.8875Z" fill="#E8F1EA" stroke="#E8F1EA" stroke-width="0.442991" stroke-miterlimit="10"/>
<path d="M50.3495 44.8534C51.1437 44.3826 51.4126 43.3562 50.9501 42.5607C50.4876 41.7653 49.4688 41.5022 48.6745 41.9729C47.8803 42.4437 47.6113 43.4702 48.0738 44.2656C48.5364 45.061 49.5552 45.3242 50.3495 44.8534Z" fill="#0C2518"/>
</g>
</g>
<defs>
<clipPath id="clip0_12_2">
<rect width="100" height="87" fill="white"/>
</clipPath>
<clipPath id="clip1_12_2">
<rect width="92.7209" height="82.675" fill="white" transform="matrix(0.860236 -0.509895 0.502679 0.864473 -5.34128 38.9223)"/>
</clipPath>
</defs>
</svg>
