<svg width="180" height="51" viewBox="0 0 180 51" fill="none" xmlns="http://www.w3.org/2000/svg">
<g clip-path="url(#clip0_44_125)">
<path fill-rule="evenodd" clip-rule="evenodd" d="M0.685185 29.2612C0.5 29.2612 0.5 29.2612 0.5 29.2612C2.16667 41.1131 11.9815 50.002 23.8333 50.7427C24.0185 50.7427 24.2037 50.7427 24.5741 50.7427C24.9444 50.7427 25.3148 50.7427 25.6852 50.7427C26.2407 50.7427 26.7963 50.7427 27.3519 50.7427C39.0185 50.002 48.6481 41.1131 50.5 29.2612C50.3148 29.2612 50.3148 29.2612 50.3148 29.2612C48.463 29.2612 46.7963 29.4464 44.9444 29.8168C42.9074 38.8909 34.9444 45.3723 25.5 45.3723C16.2407 45.3723 8.09259 38.8909 6.24074 29.6316C4.38889 29.4464 2.53704 29.2612 0.685185 29.2612Z" fill="#E8F1EA"/>
<path fill-rule="evenodd" clip-rule="evenodd" d="M25.5 0.37207C24.9444 0.37207 24.3889 0.37207 23.8333 0.37207C11.9815 1.298 2.16667 10.1869 0.5 22.0388H0.685185C2.53704 22.0388 4.2037 21.8536 6.05556 21.4832C8.09259 12.4092 16.0556 5.92763 25.3148 5.92763C34.5741 5.92763 42.7222 12.4092 44.5741 21.4832C46.2407 21.8536 48.0926 22.0388 49.9444 22.0388H50.1296C48.6481 10.1869 39.0185 1.298 27.1667 0.557256C26.9815 0.557256 26.6111 0.557256 26.4259 0.557256C26.0556 0.37207 25.6852 0.37207 25.5 0.37207Z" fill="#E8F1EA"/>
<path fill-rule="evenodd" clip-rule="evenodd" d="M46.0554 25.5575C37.9073 24.4464 30.4999 20.1872 25.4999 13.5205C20.4999 20.1872 13.0925 24.4464 4.94434 25.5575C13.0925 26.6687 20.6851 31.1131 25.4999 37.7798C30.4999 31.1131 37.9073 26.6687 46.0554 25.5575Z" fill="#E8F1EA"/>
<mask id="mask0_44_125" style="mask-type:luminance" maskUnits="userSpaceOnUse" x="66" y="1" width="114" height="50">
<path d="M180 1H66V51H180V1Z" fill="white"/>
</mask>
<g mask="url(#mask0_44_125)">
<path d="M71.26 37.5002V16.5602H76.21V37.5002H71.26ZM66.46 16.5602H81.01V20.6102H66.46V16.5602ZM66.46 33.4502H81.01V37.5002H66.46V33.4502ZM93.5017 37.8602C91.7417 37.8602 90.2217 37.5102 88.9417 36.8102C87.6817 36.1102 86.7117 35.1102 86.0317 33.8102C85.3717 32.5102 85.0417 30.9602 85.0417 29.1602C85.0417 27.3202 85.3917 25.7502 86.0917 24.4502C86.8117 23.1502 87.8117 22.1602 89.0917 21.4802C90.3717 20.8002 91.8817 20.4602 93.6217 20.4602C95.1417 20.4602 96.4817 20.7302 97.6417 21.2702C98.8217 21.8102 99.7517 22.5702 100.432 23.5502C101.132 24.5102 101.512 25.6602 101.572 27.0002H96.8917C96.7317 26.0802 96.3717 25.4002 95.8117 24.9602C95.2717 24.5002 94.5417 24.2702 93.6217 24.2702C92.8617 24.2702 92.1817 24.4602 91.5817 24.8402C91.0017 25.2202 90.5417 25.7702 90.2017 26.4902C89.8817 27.2102 89.7217 28.1002 89.7217 29.1602C89.7217 30.7402 90.0817 31.9602 90.8017 32.8202C91.5417 33.6802 92.4417 34.1102 93.5017 34.1102C94.1217 34.1102 94.6617 34.0002 95.1217 33.7802C95.6017 33.5602 96.0017 33.2502 96.3217 32.8502C96.6417 32.4302 96.8617 31.9602 96.9817 31.4402H101.662C101.542 32.7402 101.122 33.8702 100.402 34.8302C99.6817 35.7902 98.7317 36.5402 97.5517 37.0802C96.3717 37.6002 95.0217 37.8602 93.5017 37.8602ZM112.773 37.8602C110.993 37.8602 109.463 37.5102 108.183 36.8102C106.903 36.1102 105.913 35.1102 105.213 33.8102C104.533 32.5102 104.193 30.9602 104.193 29.1602C104.193 27.3402 104.533 25.7902 105.213 24.5102C105.913 23.2102 106.903 22.2102 108.183 21.5102C109.463 20.8102 110.993 20.4602 112.773 20.4602C115.453 20.4602 117.543 21.2302 119.043 22.7702C120.563 24.3102 121.323 26.4402 121.323 29.1602C121.323 30.9602 120.983 32.5102 120.303 33.8102C119.623 35.1102 118.643 36.1102 117.363 36.8102C116.083 37.5102 114.553 37.8602 112.773 37.8602ZM112.773 34.0802C113.973 34.0802 114.913 33.6402 115.593 32.7602C116.293 31.8802 116.643 30.6802 116.643 29.1602C116.643 27.6202 116.293 26.4202 115.593 25.5602C114.913 24.6802 113.973 24.2402 112.773 24.2402C111.553 24.2402 110.593 24.6802 109.893 25.5602C109.213 26.4202 108.873 27.6202 108.873 29.1602C108.873 30.6802 109.213 31.8802 109.893 32.7602C110.593 33.6402 111.553 34.0802 112.773 34.0802ZM135.555 37.5002V27.2102C135.555 26.3502 135.335 25.6602 134.895 25.1402C134.455 24.6202 133.875 24.3602 133.155 24.3602C132.335 24.3602 131.575 24.6402 130.875 25.2002C130.195 25.7402 129.475 26.6802 128.715 28.0202L128.055 24.0602C128.815 22.7602 129.735 21.8402 130.815 21.3002C131.895 20.7402 132.995 20.4602 134.115 20.4602C135.395 20.4602 136.485 20.7302 137.385 21.2702C138.305 21.8102 139.005 22.5602 139.485 23.5202C139.985 24.4802 140.235 25.6102 140.235 26.9102V37.5002H135.555ZM124.425 37.5002V20.8202H128.955L129.105 23.7902V37.5002H124.425ZM149.457 37.5002V20.8202H154.137V37.5002H149.457ZM144.057 37.5002V33.7202H159.597V37.5002H144.057ZM146.157 24.6002V20.8202H151.797V24.6002H146.157ZM149.277 18.6002V14.2202H154.257V18.6002H149.277ZM171.549 37.8602C169.789 37.8602 168.269 37.5102 166.989 36.8102C165.729 36.1102 164.759 35.1102 164.079 33.8102C163.419 32.5102 163.089 30.9602 163.089 29.1602C163.089 27.3202 163.439 25.7502 164.139 24.4502C164.859 23.1502 165.859 22.1602 167.139 21.4802C168.419 20.8002 169.929 20.4602 171.669 20.4602C173.189 20.4602 174.529 20.7302 175.689 21.2702C176.869 21.8102 177.799 22.5702 178.479 23.5502C179.179 24.5102 179.559 25.6602 179.619 27.0002H174.939C174.779 26.0802 174.419 25.4002 173.859 24.9602C173.319 24.5002 172.589 24.2702 171.669 24.2702C170.909 24.2702 170.229 24.4602 169.629 24.8402C169.049 25.2202 168.589 25.7702 168.249 26.4902C167.929 27.2102 167.769 28.1002 167.769 29.1602C167.769 30.7402 168.129 31.9602 168.849 32.8202C169.589 33.6802 170.489 34.1102 171.549 34.1102C172.169 34.1102 172.709 34.0002 173.169 33.7802C173.649 33.5602 174.049 33.2502 174.369 32.8502C174.689 32.4302 174.909 31.9602 175.029 31.4402H179.709C179.589 32.7402 179.169 33.8702 178.449 34.8302C177.729 35.7902 176.779 36.5402 175.599 37.0802C174.419 37.6002 173.069 37.8602 171.549 37.8602Z" fill="#E8F1EA"/>
</g>
</g>
<defs>
<clipPath id="clip0_44_125">
<rect width="180" height="51" fill="white"/>
</clipPath>
</defs>
</svg>
