<svg width="186" height="50" viewBox="0 0 186 50" fill="none" xmlns="http://www.w3.org/2000/svg">
<g clip-path="url(#clip0_44_226)">
<path fill-rule="evenodd" clip-rule="evenodd" d="M25.001 50C38.8081 50 50.001 38.8071 50.001 25C50.001 18.7876 47.735 13.1045 43.9846 8.73204L44.0327 8.68389L43.0404 7.69157C42.8018 7.44293 42.558 7.19922 42.3094 6.9606L41.3131 5.96425L41.2646 6.01271C36.8927 2.26445 31.2113 0 25.001 0C11.1939 0 0.000976562 11.1929 0.000976562 25C0.000976562 31.2103 2.26543 36.8917 6.01368 41.2636L5.95772 41.3196L8.67736 44.0392L8.73302 43.9836C13.1055 47.7341 18.7886 50 25.001 50ZM8.67736 41.3196C10.0372 42.6794 10.0374 42.6792 10.0374 42.6792L10.0409 42.6757L10.0519 42.6647L10.0957 42.6209L10.2678 42.4488L10.9321 41.7845L13.3969 39.3197L21.716 31.0006L42.6729 10.0437L43.9846 8.73204C43.6795 8.37641 43.3646 8.02944 43.0404 7.69157L42.3094 6.9606C41.9702 6.63502 41.6217 6.31891 41.2646 6.01271L39.9532 7.32407L18.9963 28.281L10.6772 36.6001L8.21246 39.0648L7.54814 39.7292L7.37605 39.9013L7.33227 39.945L7.32123 39.9561L7.31846 39.9588C7.31846 39.9588 7.31754 39.9598 8.67736 41.3196ZM8.67736 41.3196L10.0374 42.6792L8.73302 43.9836C7.7586 43.1478 6.84927 42.2382 6.01368 41.2636L7.31754 39.9598L8.67736 41.3196Z" fill="#E8F1EA"/>
<mask id="mask0_44_226" style="mask-type:luminance" maskUnits="userSpaceOnUse" x="65" y="0" width="121" height="50">
<path d="M186 0H65V50H186V0Z" fill="white"/>
</mask>
<g mask="url(#mask0_44_226)">
<path d="M71.0316 36.7498H65.1436L74.1036 14.3498H79.3196L88.4396 36.7498H82.1996L80.9196 33.4538H72.3116L71.0316 36.7498ZM74.0396 28.8138H79.2236L76.6316 21.2938L74.0396 28.8138ZM95.6626 20.5898L96.0786 23.9178C97.4546 22.2858 99.4386 21.1018 101.199 20.5898L101.679 26.0298C99.6626 26.0618 97.8386 26.5418 96.3346 27.5978V36.7498H91.1186V26.8618L90.4466 21.0698L95.6626 20.5898ZM105.439 30.7338V25.2298H103.263V20.7498H105.567L105.919 16.8458L110.655 16.3978V20.7498H115.327L114.847 25.2298H110.655V30.2538C110.655 31.6298 111.231 32.2698 112.223 32.2698C112.799 32.2698 113.631 32.1098 114.495 31.5978L116.287 35.7258C114.911 36.6218 113.215 37.0698 111.391 37.0698C107.839 37.0698 105.439 35.1498 105.439 30.7338ZM121.397 19.1178C119.733 19.1178 118.389 17.7418 118.389 16.0778C118.389 14.4138 119.733 13.0698 121.397 13.0698C123.093 13.0698 124.437 14.4138 124.437 16.0778C124.437 17.7418 123.093 19.1178 121.397 19.1178ZM124.021 20.5898V36.7498H118.805V21.0698L124.021 20.5898ZM133.875 26.0938L136.019 26.6058C139.059 27.3418 140.627 28.9098 140.627 31.6618C140.627 34.8938 138.259 37.0698 133.939 37.0698C131.443 37.0698 129.011 36.4618 126.995 35.2778L128.691 31.5018C130.483 32.3978 132.211 32.9098 133.779 32.9098C134.835 32.9098 135.347 32.6538 135.347 32.0778C135.347 31.5658 135.123 31.4058 134.227 31.1818L132.083 30.6698C129.011 29.9338 127.475 28.3978 127.475 25.8378C127.475 22.6058 129.811 20.4298 134.003 20.4298C136.435 20.4298 138.579 21.1018 140.467 22.2218L138.771 25.9978C137.107 25.0378 135.667 24.5898 134.131 24.5898C133.203 24.5898 132.755 24.8138 132.755 25.2618C132.755 25.7098 133.011 25.9018 133.875 26.0938ZM144.064 30.7338V25.2298H141.888V20.7498H144.192L144.544 16.8458L149.28 16.3978V20.7498H153.952L153.472 25.2298H149.28V30.2538C149.28 31.6298 149.856 32.2698 150.848 32.2698C151.424 32.2698 152.256 32.1098 153.12 31.5978L154.912 35.7258C153.536 36.6218 151.84 37.0698 150.016 37.0698C146.464 37.0698 144.064 35.1498 144.064 30.7338ZM162.006 20.5898L162.422 23.9178C163.798 22.2858 165.782 21.1018 167.542 20.5898L168.022 26.0298C166.006 26.0618 164.182 26.5418 162.678 27.5978V36.7498H157.462V26.8618L156.79 21.0698L162.006 20.5898ZM169.909 39.3098C172.469 39.3098 173.781 38.7018 174.357 37.2938L174.485 36.9418L168.437 20.7498H174.037L177.013 30.3178L180.117 20.7498H185.525L181.333 31.9818L179.349 37.2938C177.717 41.7098 175.317 43.7258 171.189 44.1098L169.909 39.3098Z" fill="#E8F1EA"/>
</g>
</g>
<defs>
<clipPath id="clip0_44_226">
<rect width="186" height="50" fill="white"/>
</clipPath>
</defs>
</svg>
