<svg width="189" height="50" viewBox="0 0 189 50" fill="none" xmlns="http://www.w3.org/2000/svg">
<g clip-path="url(#clip0_44_134)">
<path d="M32.8399 36.0451C32.7889 36.7795 32.7354 37.4838 32.6793 38.1581C32.582 39.3299 31.6768 40.2715 30.5053 40.3719C29.7997 40.4342 29.0838 40.486 28.3574 40.5275C27.6311 40.5483 26.9152 40.569 26.2096 40.5898C25.5041 40.6106 24.8607 40.6209 24.2797 40.6209C23.7609 40.6209 23.1695 40.6106 22.5054 40.5898C21.8413 40.569 21.1669 40.5483 20.4821 40.5275C19.7973 40.486 19.1228 40.4342 18.4588 40.3719C17.42 40.2714 16.6167 39.4475 16.4862 38.4121C16.079 35.1836 15.7612 31.8733 15.5327 28.481C15.2837 24.4759 15.1592 20.533 15.1592 16.6524V14.9715C15.18 14.2659 15.1903 13.5396 15.1903 12.7926V10.5825C15.2198 9.55107 15.9491 8.65676 16.9696 8.50398C17.3645 8.44487 17.7675 8.39064 18.1786 8.3413C19.237 8.19604 20.3057 8.08191 21.3848 7.9989C22.4639 7.89514 23.5222 7.82251 24.5598 7.781C25.6182 7.7395 26.6143 7.71875 27.5481 7.71875H28.6687C29.1045 7.71875 29.5507 7.72912 30.0072 7.74987C30.4845 7.74987 30.9411 7.76025 31.3769 7.781C32.0259 7.81191 32.5514 8.3127 32.6175 8.95915C32.8265 11.0033 32.9837 13.1215 33.0889 15.3139C33.2134 17.8872 33.2757 20.367 33.2757 22.7535C33.2757 23.9986 33.2549 25.3786 33.2134 26.8935C33.1926 28.3877 33.1511 29.9129 33.0889 31.4693C33.0266 33.0257 32.9436 34.551 32.8399 36.0451Z" fill="#E8F1EA"/>
<path fill-rule="evenodd" clip-rule="evenodd" d="M50 3.125C50 1.39911 48.6009 0 46.875 0H3.125C1.39911 0 0 1.39911 0 3.125V46.875C0 48.6009 1.39911 50 3.125 50H46.875C48.6009 50 50 48.6009 50 46.875V3.125ZM45.976 34.4885C47.1173 31.5625 47.688 28.3978 47.688 24.9945C47.6672 22.0477 47.356 19.4019 46.7542 17.0569C46.1731 14.7119 45.3638 12.6367 44.3262 10.8313C43.2886 9.02588 42.0538 7.47986 40.6219 6.19324C39.1901 4.90662 37.6129 3.85864 35.8905 3.04932C34.1681 2.21924 32.3212 1.61743 30.3497 1.2439C28.399 0.849609 26.3757 0.652466 24.2798 0.652466C22.9309 0.652466 21.4471 0.776978 19.8285 1.026C18.2098 1.27502 16.5704 1.72119 14.9103 2.3645C13.2501 3.00781 11.6315 3.87939 10.0543 4.97925C8.49792 6.0791 7.11792 7.47986 5.91431 9.18152C4.71069 10.8624 3.73535 12.8857 2.98828 15.2515C2.26196 17.6172 1.8988 20.3772 1.8988 23.5315C1.8988 26.748 2.22046 29.6118 2.86377 32.1228C3.52783 34.6338 4.40979 36.8335 5.50964 38.7219C6.6095 40.6104 7.88574 42.2083 9.33838 43.5156C10.8118 44.823 12.3578 45.8917 13.9764 46.7218C15.5951 47.5311 17.2449 48.1122 18.9258 48.465C20.6067 48.8385 22.2253 49.0253 23.7817 49.0253C27.3718 49.0253 30.6299 48.4131 33.5559 47.1887C36.5027 45.9436 39.024 44.2523 41.12 42.1149C43.2159 39.9567 44.8346 37.4146 45.976 34.4885Z" fill="#E8F1EA"/>
<mask id="mask0_44_134" style="mask-type:luminance" maskUnits="userSpaceOnUse" x="65" y="0" width="124" height="50">
<path d="M189 0H65V50H189V0Z" fill="white"/>
</mask>
<g mask="url(#mask0_44_134)">
<path d="M79.0205 36.3001H64.9805V32.4301H69.6005V17.6701H64.9805V13.8001H79.0205V17.6701H74.4005V32.4301H79.0205V36.3001ZM89.9888 32.5501C92.1188 32.5501 94.4588 32.0401 96.0488 31.3801L97.0088 35.4001C94.5488 36.3301 92.5688 36.7501 89.9888 36.7501C85.4288 36.7501 82.9688 34.5301 82.9688 30.4501V19.6501C82.9688 15.5701 85.4288 13.3501 89.9888 13.3501C92.5688 13.3501 94.5488 13.7701 97.0088 14.7001L96.0488 18.7201C94.4588 18.0601 92.1188 17.5501 89.9888 17.5501C88.3088 17.5501 87.7688 18.2101 87.7688 20.2201V29.8801C87.7688 31.8901 88.3088 32.5501 89.9888 32.5501ZM107.977 36.7501C103.417 36.7501 100.957 34.5301 100.957 30.4501V19.6501C100.957 15.5701 103.417 13.3501 107.977 13.3501C112.537 13.3501 114.997 15.5701 114.997 19.6501V30.4501C114.997 34.5301 112.537 36.7501 107.977 36.7501ZM107.977 17.5501C106.297 17.5501 105.757 18.2101 105.757 20.2201V29.8801C105.757 31.8901 106.297 32.5501 107.977 32.5501C109.657 32.5501 110.197 31.8901 110.197 29.8801V20.2201C110.197 18.2101 109.657 17.5501 107.977 17.5501ZM128.635 36.3001L123.385 23.1301L123.595 36.3001H119.395V13.8001H123.295L128.545 26.9701L128.335 13.8001H132.535V36.3001H128.635ZM150.973 36.3001H136.933V32.4301H141.553V17.6701H136.933V13.8001H150.973V17.6701H146.353V32.4301H150.973V36.3001ZM168.361 32.1301V36.3001H155.521V32.5501L163.261 17.9701H155.521V13.8001H168.361V17.5501L160.621 32.1301H168.361ZM173.81 36.3001V13.8001H186.05V17.6701H178.61V22.5001H185.75V26.3701H178.61V32.4301H186.05V36.3001H173.81Z" fill="#E8F1EA"/>
</g>
</g>
<defs>
<clipPath id="clip0_44_134">
<rect width="189" height="50" fill="white"/>
</clipPath>
</defs>
</svg>
