<svg width="205" height="50" viewBox="0 0 205 50" fill="none" xmlns="http://www.w3.org/2000/svg">
<g clip-path="url(#clip0_44_142)">
<path opacity="0.4" d="M6.91626 24.3994V50.0002H0V29.9278L6.91626 24.3994Z" fill="#E8F1EA"/>
<path d="M6.91602 24.3994V50.0002H13.8323V28.6827L6.91602 24.3994Z" fill="#E8F1EA"/>
<path opacity="0.5" d="M20.544 13.9424V49.9997H11.3223V21.5743L20.544 13.9424Z" fill="#E8F1EA"/>
<path d="M20.5449 13.9424V49.9997H29.7666V19.6535L20.5449 13.9424Z" fill="#E8F1EA"/>
<path opacity="0.6" d="M37.5776 0V50H25.1553V11.4186L37.5776 0Z" fill="#E8F1EA"/>
<path d="M37.5781 0V50H50.0004V11.4186L37.5781 0Z" fill="#E8F1EA"/>
<mask id="mask0_44_142" style="mask-type:luminance" maskUnits="userSpaceOnUse" x="65" y="0" width="140" height="50">
<path d="M205 0H65V50H205V0Z" fill="white"/>
</mask>
<g mask="url(#mask0_44_142)">
<path d="M65.416 36.6499V14.4739H68.744V36.6499H65.416ZM77.1368 36.6499H73.9368V19.4659H76.8168V21.2579L78.6088 19.4659H84.9768L86.3528 20.8739L87.7288 19.4659H95.0248L97.2648 21.6739V36.6499H94.0648V22.4739H87.2808V36.6499H84.0808V22.4739H78.6728L77.1368 23.8499V36.6499ZM105.199 43.1459H101.999V19.4659H104.879V21.2579L106.671 19.4659H113.231L115.471 21.6739V34.4099L113.231 36.6499H105.199V43.1459ZM112.271 22.4739H106.735L105.199 23.8499V33.7059H112.271V22.4739ZM123.386 36.6499H120.186V19.4659H123.066V21.6419L125.274 19.4659H129.242V22.5379H125.21L123.386 24.2659V36.6499ZM135.139 16.3619H131.811V13.3539H135.139V16.3619ZM135.075 36.6499H131.875V19.4659H135.075V36.6499ZM143.074 36.6499H139.874V19.4659H142.754V21.2579L144.546 19.4659H151.394L153.634 21.6739V36.6499H150.402V22.4739H144.61L143.074 23.8499V36.6499ZM166.918 36.6499H161.19L158.95 34.4099V22.1219H156.582V19.4659H158.95V15.9779H162.15V19.4659H166.566V22.1219H162.15V33.6419H166.918V36.6499ZM173.421 16.3619H170.093V13.3539H173.421V16.3619ZM173.357 36.6499H170.157V19.4659H173.357V36.6499ZM182.795 36.6499H179.595V22.1219H176.811V19.4659H179.595V15.2739L181.835 13.0659H187.147V15.7219H182.795V19.4659H186.827V22.1219H182.795V36.6499ZM189.817 37.7379H192.921V40.3619H200.121V35.7219H191.801L189.593 33.5139V19.4659H192.793V32.9059H200.121V19.4659H203.321V40.9379L201.049 43.1459H192.089L189.817 40.9379V37.7379Z" fill="#E8F1EA"/>
</g>
</g>
<defs>
<clipPath id="clip0_44_142">
<rect width="205" height="50" fill="white"/>
</clipPath>
</defs>
</svg>
