<svg width="204" height="51" viewBox="0 0 204 51" fill="none" xmlns="http://www.w3.org/2000/svg">
<g clip-path="url(#clip0_44_162)">
<path d="M14.6077 33.6427H7.77577C3.89147 33.6427 0.750977 30.5022 0.750977 26.6179V26.2047C0.750977 22.348 3.89147 19.2075 7.77577 19.2075C21.2744 19.2075 32.211 30.1441 32.211 43.6427V43.7529C32.211 47.6372 29.0705 50.7777 25.1862 50.7777C21.3019 50.7777 18.1614 47.6372 18.1614 43.7529V37.224C18.1614 35.2405 16.5636 33.6427 14.6077 33.6427Z" fill="#E8F1EA"/>
<path d="M33.6442 14.6067V7.77479C33.6442 3.8905 30.5038 0.75 26.6195 0.75H26.2062C22.3495 0.75 19.209 3.8905 19.209 7.77479C19.209 21.2734 30.1456 32.2101 43.6442 32.2101H43.7544C47.6387 32.2101 50.7792 29.0696 50.7792 25.1853C50.7792 21.301 47.6387 18.1605 43.7544 18.1605H37.2255C35.242 18.1605 33.6442 16.5627 33.6442 14.6067Z" fill="#E8F1EA"/>
<mask id="mask0_44_162" style="mask-type:luminance" maskUnits="userSpaceOnUse" x="66" y="1" width="138" height="50">
<path d="M204 1H66V51H204V1Z" fill="white"/>
</mask>
<g mask="url(#mask0_44_162)">
<path d="M80.3781 36.9999H65.9941V14.7419H70.7061V32.7529H80.3781V36.9999ZM91.8416 37.4649C85.4246 37.4649 80.4646 32.5049 80.4646 25.8399C80.4646 19.1749 85.4246 14.2769 91.8416 14.2769C98.2896 14.2769 103.281 19.1749 103.281 25.8399C103.281 32.5049 98.2896 37.4649 91.8416 37.4649ZM91.8416 33.2489C95.9336 33.2489 98.4136 29.9319 98.4136 25.8399C98.4136 21.7479 95.9336 18.4929 91.8416 18.4929C87.7806 18.4929 85.3006 21.7479 85.3006 25.8399C85.3006 29.9319 87.7806 33.2489 91.8416 33.2489ZM116.698 37.4649C110.25 37.4649 105.228 32.6599 105.228 25.7779C105.228 19.2059 110.002 14.2769 116.512 14.2769C122.154 14.2769 126.184 17.6249 127.641 22.4609H122.092C121.41 20.1979 119.364 18.4929 116.388 18.4929C112.792 18.4929 110.064 21.1279 110.064 25.9019C110.064 30.1799 112.451 33.4659 116.915 33.4659C120.201 33.4659 122.278 31.5129 122.898 28.7539H116.45V25.0029H127.92C128.199 32.2569 123.797 37.4649 116.698 37.4649ZM135.915 36.9999H131.203V14.7419H135.915V36.9999ZM150.542 37.4649C144.125 37.4649 139.165 32.5049 139.165 25.8399C139.165 19.1749 144.125 14.2769 150.542 14.2769C156.99 14.2769 161.981 19.1749 161.981 25.8399C161.981 30.2109 159.842 33.8379 156.556 35.8219L160.276 42.6419H155.502L152.526 37.3099C151.875 37.4029 151.224 37.4649 150.542 37.4649ZM150.542 33.2489C154.634 33.2489 157.114 29.9319 157.114 25.8399C157.114 21.7479 154.634 18.4929 150.542 18.4929C146.481 18.4929 144.001 21.7479 144.001 25.8399C144.001 29.9319 146.481 33.2489 150.542 33.2489ZM183.49 14.7419V28.5369C183.49 33.8069 180.142 37.4649 174.345 37.4649C168.455 37.4649 165.169 33.8069 165.169 28.5369V14.7419H169.881V28.6299C169.881 31.3889 171.214 33.2489 174.345 33.2489C177.445 33.2489 178.778 31.3889 178.778 28.6299V14.7419H183.49ZM202.969 32.9079V36.9999H187.996V14.7419H202.752V18.8339H192.708V23.5149H201.822V27.5759H192.708V32.9079H202.969Z" fill="#E8F1EA"/>
</g>
</g>
<defs>
<clipPath id="clip0_44_162">
<rect width="204" height="51" fill="white"/>
</clipPath>
</defs>
</svg>
