<svg width="236" height="50" viewBox="0 0 236 50" fill="none" xmlns="http://www.w3.org/2000/svg">
<path fill-rule="evenodd" clip-rule="evenodd" d="M14.8126 31.25V18.75V6.25L4 12.5V25V37.5L14.8126 43.75L25.608 50L36.4206 43.75L25.608 37.5L14.8126 31.25Z" fill="#E8F1EA"/>
<path fill-rule="evenodd" clip-rule="evenodd" d="M25.6074 12.5V25L36.42 31.25L47.2155 37.5V25L36.42 18.75V6.25L25.6074 0V12.5Z" fill="#E8F1EA"/>
<mask id="mask0_44_154" style="mask-type:luminance" maskUnits="userSpaceOnUse" x="65" y="0" width="171" height="50">
<path d="M236 0H65V50H236V0Z" fill="white"/>
</mask>
<g mask="url(#mask0_44_154)">
<path d="M70.7899 33.6501H93.1399V36.8001H67.1299V16.3401H70.7899V33.6501ZM95.2701 29.2701C95.2701 23.8101 99.3501 21.3801 108.08 21.3801C116.84 21.3801 120.89 23.8101 120.89 29.2701C120.89 34.7301 116.84 37.1601 108.08 37.1601C99.3501 37.1601 95.2701 34.7301 95.2701 29.2701ZM98.6901 29.2701C98.6901 32.8101 101.09 34.2201 108.08 34.2201C115.07 34.2201 117.47 32.8101 117.47 29.2701C117.47 25.7601 115.07 24.3201 108.08 24.3201C101.09 24.3201 98.6901 25.7601 98.6901 29.2701ZM147.412 22.5201V34.4601C147.412 40.4001 143.722 42.5901 135.142 42.5901C131.932 42.5901 127.702 42.1101 124.612 41.2101L125.392 38.5401C128.332 39.3201 131.722 39.8601 135.322 39.8601C142.102 39.8601 144.232 38.3001 144.112 34.4901L144.052 33.7701C140.932 35.0601 137.152 36.0501 133.222 36.0501C127.102 36.0501 123.952 33.9201 123.952 28.8501C123.952 23.3001 128.452 21.4701 135.352 21.4701C140.002 21.4701 144.262 22.0101 147.412 22.5201ZM127.372 28.8201C127.372 32.0301 129.232 33.3501 133.492 33.3501C136.942 33.3501 140.512 32.6301 143.962 31.4601V24.9201C141.292 24.5601 137.842 24.2901 134.902 24.2901C130.192 24.2901 127.372 25.4601 127.372 28.8201ZM154.808 15.5601V19.6101H151.388V15.5601H154.808ZM151.388 36.8001V21.7701H154.808V36.8001H151.388ZM181.804 22.5201V42.2001H178.384V34.3401C175.204 35.8101 171.364 37.1001 167.374 37.1001C161.674 37.1001 158.464 34.8201 158.464 29.4201C158.464 23.4201 162.934 21.4701 169.654 21.4701C174.304 21.4701 178.654 21.9801 181.804 22.5201ZM161.884 29.2701C161.884 32.8101 163.744 34.2201 168.004 34.2201C171.454 34.2201 174.934 33.2301 178.384 31.9401V24.9201C175.714 24.5601 172.234 24.2901 169.294 24.2901C164.584 24.2901 161.884 25.6101 161.884 29.2701ZM185.512 29.9601V21.7701H188.932V29.5101C188.932 32.5401 190.792 34.2501 195.352 34.2501C197.872 34.2501 201.322 33.5301 205.012 32.3001V21.7701H208.432V36.8001H205.462L205.162 34.6401C201.952 35.9901 198.082 37.1601 194.272 37.1601C188.752 37.1601 185.512 35.1201 185.512 29.9601ZM224.47 34.4001C228.85 34.4001 232.54 33.7401 234.07 33.4101L234.79 35.9901C232.24 36.6501 228.04 37.1601 224.2 37.1601C215.98 37.1601 211.96 35.0901 211.96 29.2701C211.96 23.5701 216.31 21.4101 223.72 21.4101C230.53 21.4101 235.33 23.1501 235.33 28.4901C235.33 29.0001 235.27 29.8401 235.21 30.1701H215.32C215.74 33.5901 218.53 34.4001 224.47 34.4001ZM223.6 23.8401C218.26 23.8401 215.68 24.9201 215.32 28.2201H231.97C231.7 25.2501 229.75 23.8401 223.6 23.8401Z" fill="#E8F1EA"/>
</g>
</svg>
