<svg width="206" height="51" viewBox="0 0 206 51" fill="none" xmlns="http://www.w3.org/2000/svg">
<g clip-path="url(#clip0_44_95)">
<path fill-rule="evenodd" clip-rule="evenodd" d="M40.0771 28.0533V44.7915L48.9944 39.6605V22.9224L40.0771 28.0533Z" fill="#E8F1EA"/>
<path opacity="0.5" fill-rule="evenodd" clip-rule="evenodd" d="M22.3378 10.4132L9.58126 17.7734L0.664062 12.6425L22.3378 0.151367L37.589 8.96241L28.7072 14.0933L22.3378 10.4132Z" fill="#E8F1EA"/>
<path opacity="0.5" fill-rule="evenodd" clip-rule="evenodd" d="M25.6055 36.3954L40.0764 28.0529L48.9759 22.9043L40.0764 17.7734L25.6055 26.1513V36.3954Z" fill="#E8F1EA"/>
<path fill-rule="evenodd" clip-rule="evenodd" d="M0.664062 12.6426V37.6603L22.3378 50.1515V39.8896L9.58126 32.5294V17.7736L0.664062 12.6426Z" fill="#E8F1EA"/>
<mask id="mask0_44_95" style="mask-type:luminance" maskUnits="userSpaceOnUse" x="65" y="0" width="141" height="50">
<path d="M206 0H65V50H206V0Z" fill="white"/>
</mask>
<g mask="url(#mask0_44_95)">
<path d="M83.2886 35.9658C81.7076 36.5858 79.7856 36.7718 77.7396 36.7718C77.4296 36.7718 77.1196 36.7718 76.8096 36.7408C70.0826 36.4308 65.1846 32.4008 65.1846 25.2708C65.1846 18.0788 70.4236 13.6768 77.4296 13.6768C79.5686 13.6768 81.6456 14.0798 83.1956 14.8238L82.9166 20.1248C81.6456 19.5358 79.8786 19.1018 77.9566 19.1018C73.2136 19.1018 70.3306 21.6748 70.3306 25.5808C70.3306 29.3008 72.5626 31.6568 76.3756 32.0908C77.0576 32.1528 77.8016 32.1528 78.4836 32.1218V26.1078H83.2886V35.9658ZM86.4835 36.3998V19.5668H91.1955V21.7988H91.3195C92.1875 20.0008 94.2335 19.1638 96.9615 19.1638L96.6515 24.6508C92.6835 24.4958 91.2885 26.0768 91.2885 29.9828V36.3998H86.4835ZM116.242 42.2898V19.5668H120.954V21.5818H121.078C122.039 20.0938 123.93 19.1638 126.224 19.1638C130.781 19.1638 134.191 22.4188 134.191 27.9988C134.191 33.5788 130.502 36.8028 126.193 36.8028C124.023 36.8028 122.101 35.8418 121.14 34.0748H121.047V42.2898H116.242ZM125.17 32.3698C127.402 32.3698 129.138 30.6338 129.138 28.2158C129.138 25.7978 127.402 24.0928 125.17 24.0928C122.907 24.0928 121.14 25.7048 121.14 28.2158C121.14 30.6958 122.907 32.3698 125.17 32.3698ZM170.367 36.0588C168.879 36.5858 167.205 36.8028 165.376 36.8028C159.3 36.8028 155.425 33.7028 155.425 27.9058C155.425 22.8838 158.711 19.1638 163.764 19.1638C168.91 19.1638 171.483 23.1938 171.483 27.7508C171.483 28.4328 171.452 29.1768 171.328 29.7348H160.788C161.408 31.8738 163.33 32.8348 166.244 32.8348C167.67 32.8348 168.848 32.6488 169.964 32.2458L170.367 36.0588ZM163.826 23.6278C162.276 23.6278 160.881 24.5268 160.54 26.7898H166.957C166.864 25.0228 165.624 23.6278 163.826 23.6278ZM174.125 36.3998V19.5668H178.837V21.7988H178.961C179.829 20.0008 181.875 19.1638 184.603 19.1638L184.293 24.6508C180.325 24.4958 178.93 26.0768 178.93 29.9828V36.3998H174.125Z" fill="#E8F1EA"/>
<path d="M108.066 25.7048C108.066 24.7128 107.074 24.0928 104.997 24.0928C102.982 24.0928 101.091 24.6818 99.6028 25.3638L99.2618 20.5588C100.719 19.7838 102.92 19.1638 105.493 19.1638C110.763 19.1638 113.026 21.6128 113.026 26.1388V36.3998H108.128V34.3538C106.888 35.8418 105.462 36.8028 102.982 36.8028C100.192 36.8028 98.1768 35.3458 98.1768 32.5248C98.1768 28.9288 101.06 27.8748 104.656 27.2858C106.02 27.0378 106.764 26.8518 107.415 26.6038C107.942 26.3868 108.066 26.1388 108.066 25.7048ZM108.128 29.0838C107.632 29.3318 106.826 29.6418 105.803 29.8588C104.191 30.2308 103.199 30.6338 103.199 32.0288C103.199 33.1448 104.129 33.6718 105.307 33.6718C106.671 33.6718 107.663 32.8348 108.128 31.8118V29.0838ZM148.143 27.8438C148.143 25.5498 147.182 23.9998 144.919 23.9998C142.687 23.9998 141.664 25.5188 141.664 27.8748V36.3998H136.859V12.8398H141.571V21.5198H141.695C142.687 20.0628 144.206 19.1638 146.593 19.1638C150.778 19.1638 152.917 21.9538 152.917 26.0458V36.3998H148.143V27.8438ZM185.939 36.3998V32.7728L193.472 24.1548H186.28V19.5668H199.331V23.8758L191.798 32.2148H199.486V36.3998H185.939Z" fill="#E8F1EA"/>
</g>
</g>
<defs>
<clipPath id="clip0_44_95">
<rect width="206" height="51" fill="white"/>
</clipPath>
</defs>
</svg>
