<svg width="99" height="80" viewBox="0 0 99 80" fill="none" xmlns="http://www.w3.org/2000/svg">
<path d="M28.8896 24.8293L16.7988 13.8045L98.8434 0L57.8211 22.0225L28.8896 24.8293Z" fill="#76B420"/>
<path d="M37.5269 57.863L28.8906 24.8293L98.8444 0L60.4131 37.7836L37.5269 57.863Z" fill="#619519"/>
<path d="M42.4911 36.2725L37.5254 57.8631L53.2865 47.0679L52.423 36.2725H42.4911Z" fill="#517B17"/>
<path d="M42.4922 36.2724L60.8443 54.6243L98.844 0L42.4922 36.2724Z" fill="#76B420"/>
<path d="M32.6732 67.3134C32.2689 67.3134 31.8662 67.1474 31.5758 66.8219C31.0357 66.2161 31.089 65.2869 31.6946 64.7469C33.2195 63.387 34.0705 62.481 34.0788 62.4722C34.6338 61.8797 35.5636 61.8488 36.1561 62.4036C36.7485 62.9583 36.7794 63.8884 36.2248 64.4809C36.1868 64.5216 35.2738 65.4936 33.651 66.9408C33.3705 67.1906 33.0214 67.3134 32.6732 67.3134Z" fill="#619519"/>
<path d="M11.0665 79.2285C10.395 79.2285 9.78866 78.7652 9.63421 78.0827C9.45506 77.291 9.95179 76.5041 10.7435 76.3252C12.6084 75.9036 14.526 75.2933 16.443 74.5114C17.1946 74.2051 18.0522 74.5657 18.3589 75.3172C18.6653 76.0688 18.3047 76.9265 17.5529 77.2331C15.4868 78.0758 13.4138 78.7349 11.3918 79.192C11.2829 79.2167 11.1736 79.2285 11.0665 79.2285ZM22.592 74.6035C22.0816 74.6035 21.5856 74.3373 21.3144 73.8622C20.9119 73.1574 21.157 72.2596 21.8621 71.8571C23.5671 70.8836 25.2813 69.7739 26.9568 68.5584C27.6139 68.0818 28.5329 68.2283 29.0093 68.8853C29.486 69.5422 29.3395 70.4613 28.6825 70.9378C26.9209 72.2156 25.1164 73.3836 23.3191 74.4097C23.0895 74.5412 22.8391 74.6035 22.592 74.6035Z" fill="#619519"/>
<path d="M4.38658 79.9999C3.35258 79.9999 2.32051 79.9446 1.31122 79.8352C0.504254 79.7475 -0.0787703 79.0226 0.00868333 78.2156C0.09633 77.4087 0.82009 76.8258 1.62822 76.9129C2.68847 77.028 3.77884 77.0762 4.86689 77.056C5.67946 77.0457 6.34839 77.6867 6.36345 78.4983C6.37851 79.3099 5.73274 79.9798 4.92134 79.9948C4.74315 79.9981 4.56476 79.9999 4.38658 79.9999Z" fill="#619519"/>
</svg>
