<svg width="25" height="25" viewBox="0 0 25 25" fill="none" xmlns="http://www.w3.org/2000/svg">
<path d="M17 19.5H18.1243C18.1572 19.5 18.1737 19.5 18.1848 19.4999C21.1251 19.4824 22.9023 16.2419 21.3366 13.7532C21.3307 13.7437 21.3218 13.7298 21.3042 13.7021V13.7021M17.1575 7.08089L17.1603 7.07912L16.3126 5.73851C16.1849 5.53658 16.1211 5.43562 16.0715 5.36466C14.5795 3.2299 11.4192 3.22874 9.92567 5.3624C9.87602 5.43332 9.81211 5.53424 9.68429 5.73608V5.73608M9 19.5V19.5C7.97153 19.5 7.45729 19.5 7.11216 19.4348C4.79748 18.9973 3.45458 16.5592 4.32206 14.3691C4.4514 14.0425 4.72626 13.6079 5.27598 12.7386L5.42269 12.5067" stroke="#76B420" stroke-width="1.5" stroke-linecap="round" stroke-linejoin="round"/>
<path d="M20.2747 8.56215C20.4896 6.77117 20.5971 5.87568 20.171 5.4465C20.0382 5.31269 19.8768 5.21067 19.6989 5.14808C19.1284 4.94732 18.3656 5.42859 16.8401 6.39114L16.6734 6.49631C15.1479 7.45887 14.3851 7.94014 14.3207 8.54148C14.3006 8.72897 14.3232 8.91857 14.3868 9.09608C14.5907 9.66544 15.4452 9.95395 17.1543 10.531L17.3023 10.581C18.3728 10.9424 18.908 11.1231 19.338 10.9488C19.4756 10.893 19.6021 10.8131 19.7117 10.713C20.0541 10.3999 20.1214 9.83907 20.2561 8.71731L20.2747 8.56215Z" fill="#76B420"/>
<path d="M8.51997 10.85C8.38092 9.73164 8.3114 9.17248 7.96858 8.86107C7.85886 8.7614 7.73228 8.68204 7.59476 8.6267C7.1651 8.45379 6.63151 8.63481 5.56431 8.99686L5.41198 9.04854C3.71479 9.62431 2.86619 9.9122 2.66237 10.4797C2.5988 10.6567 2.57599 10.8457 2.59563 11.0328C2.65862 11.6325 3.41438 12.1139 4.9259 13.0769L5.09832 13.1867C6.63439 14.1653 7.40242 14.6546 7.9756 14.4535C8.15421 14.3908 8.31625 14.2884 8.44951 14.154C8.87713 13.7226 8.76477 12.8189 8.54005 11.0115L8.51997 10.85Z" fill="#76B420"/>
<path d="M17.7495 19.3986C17.7495 17.5948 17.7495 16.6928 17.2753 16.3175C17.1274 16.2005 16.955 16.1184 16.771 16.0775C16.1806 15.9461 15.4806 16.5149 14.0807 17.6523L13.9594 17.7509C13.0825 18.4633 12.6441 18.8195 12.5621 19.2762C12.5358 19.4223 12.5358 19.572 12.5621 19.7181C12.6441 20.1747 13.0825 20.5309 13.9594 21.2434L14.0807 21.3419C15.4806 22.4794 16.1806 23.0482 16.771 22.9168C16.955 22.8759 17.1274 22.7938 17.2753 22.6768C17.7495 22.3014 17.7495 21.3995 17.7495 19.5957V19.3986Z" fill="#76B420"/>
</svg>
