<svg width="20" height="22" viewBox="0 0 20 22" fill="none" xmlns="http://www.w3.org/2000/svg">
<mask id="mask0_180_423" style="mask-type:luminance" maskUnits="userSpaceOnUse" x="0" y="1" width="20" height="20">
<path d="M20 1H0V21H20V1Z" fill="white"/>
</mask>
<g mask="url(#mask0_180_423)">
<path d="M10 4V2M10 4C13.866 4 17 7.13401 17 11M10 4C6.13401 4 3 7.13401 3 11M17 11C17 14.866 13.866 18 10 18M17 11H19M3 11H1M3 11C3 14.866 6.13401 18 10 18M10 18V20M10 13.5C8.61929 13.5 7.5 12.3807 7.5 11C7.5 9.61929 8.61929 8.5 10 8.5C11.3807 8.5 12.5 9.61929 12.5 11C12.5 12.3807 11.3807 13.5 10 13.5Z" stroke="#76B420" stroke-width="1.5" stroke-linecap="round" stroke-linejoin="round"/>
</g>
</svg>
