<svg width="20" height="22" viewBox="0 0 20 22" fill="none" xmlns="http://www.w3.org/2000/svg">
<mask id="mask0_180_399" style="mask-type:luminance" maskUnits="userSpaceOnUse" x="0" y="1" width="20" height="20">
<path d="M20 1H0V21H20V1Z" fill="white"/>
</mask>
<g mask="url(#mask0_180_399)">
<path d="M8.41885 6.32826C8.25468 7.2192 8.09893 8.92405 8.09893 9.83014C8.09893 10.7362 8.14009 12.4703 8.41885 13.332M8.41885 6.32826L10.2392 4.73331C12.5032 2.74959 13.6352 1.75773 14.6023 1.95036C14.9031 2.01028 15.1861 2.13858 15.4294 2.32534C16.2116 2.92576 16.2116 4.43084 16.2116 7.441V12.1985C16.2116 15.1644 16.2116 16.6474 15.4367 17.2479C15.1957 17.4347 14.9145 17.5641 14.6159 17.6258C13.6557 17.8239 12.53 16.8602 10.2784 14.9328C9.24418 14.0475 8.47562 13.3873 8.41885 13.332M8.41885 6.32826C8.02052 6.30039 6.23114 6.29984 4.50966 6.30651C3.08315 6.31205 2.3699 6.31482 1.85881 6.66992C1.66166 6.8069 1.48933 6.9799 1.35312 7.17758C1 7.69004 1 8.40607 1 9.83813C1 11.2769 1 11.9963 1.35526 12.5098C1.49231 12.7079 1.66554 12.881 1.86376 13.0178C2.37762 13.3726 3.0944 13.3718 4.52794 13.3704C6.2438 13.3686 8.02193 13.3598 8.41885 13.332M3.02851 13.3663L3.00646 18.4964C3.0029 19.3259 3.67454 20 4.50401 19.9996C5.33035 19.9992 6 19.3292 6 18.5028V13.3668M18.2398 5.75448C19.2539 8.81122 19.2539 10.8491 18.2398 13.9058" stroke="#76B420" stroke-width="1.5" stroke-linecap="round" stroke-linejoin="round"/>
</g>
</svg>
