<svg width="18" height="20" viewBox="0 0 18 20" fill="none" xmlns="http://www.w3.org/2000/svg">
<path d="M8.99998 19C12.2143 19 16.5 16.8411 16.5 12C16.5035 8.41033 14.6735 6.0166 14.0012 5.25839C13.9145 5.16063 13.8712 5.11175 13.7854 5.09662C13.7634 5.09273 13.724 5.09246 13.7019 5.09604C13.6159 5.11 13.576 5.15374 13.4963 5.24122C13.1879 5.57954 12.6672 6.32135 12.2754 7.75619C11.5501 4.71833 10.1511 2.83341 9.20879 1.85022C8.92097 1.5499 8.77705 1.39974 8.4288 1.35384C8.34679 1.34303 8.17379 1.34959 8.09284 1.36657C7.74905 1.43868 7.61803 1.59795 7.35598 1.91648C6.39538 3.08412 4.94257 5.43367 4.46824 9.33862C4.13696 8.5988 3.76771 7.9581 3.50537 7.53534C3.37827 7.33053 3.31472 7.22812 3.20674 7.20768C3.17527 7.20172 3.13517 7.20252 3.10396 7.20973C2.99688 7.23448 2.93832 7.33786 2.8212 7.54462C2.34143 8.39159 1.51286 10.1233 1.5 12C1.5 17 5.7857 19 8.99998 19ZM8.99998 19C10.2857 19 12 17.9205 12 15.5C12 14.113 11.0149 12.5096 10.1737 11.3933C9.76343 10.8488 9.5583 10.5766 9.17827 10.5047C9.0743 10.485 8.91537 10.4846 8.81131 10.5038C8.43094 10.5738 8.22552 10.8437 7.81467 11.3835C6.97603 12.4853 5.99995 14.074 5.99995 15.5C5.99995 18 7.71426 19 8.99998 19Z" stroke="#76B420" stroke-width="1.5" stroke-linecap="round" stroke-linejoin="round"/>
</svg>
