<svg width="22" height="22" viewBox="0 0 22 22" fill="none" xmlns="http://www.w3.org/2000/svg">
<path fill-rule="evenodd" clip-rule="evenodd" d="M11.002 21.5632C16.8355 21.5632 21.5645 16.8342 21.5645 11.0007C21.5645 5.16722 16.8355 0.438232 11.002 0.438232C5.16845 0.438232 0.439453 5.16722 0.439453 11.0007C0.439453 16.8342 5.16845 21.5632 11.002 21.5632ZM12.627 11.0007C12.627 11.8982 11.8994 12.6257 11.002 12.6257C10.1045 12.6257 9.37695 11.8982 9.37695 11.0007C9.37695 10.1033 10.1045 9.37573 11.002 9.37573C11.8994 9.37573 12.627 10.1033 12.627 11.0007ZM6.39779 11.0007C6.39779 8.45792 8.45914 6.39657 11.002 6.39657C13.5448 6.39657 15.6061 8.45792 15.6061 11.0007C15.6061 13.5435 13.5448 15.6049 11.002 15.6049C8.45914 15.6049 6.39779 13.5435 6.39779 11.0007ZM11.002 4.77157C7.56168 4.77157 4.77279 7.56046 4.77279 11.0007C4.77279 14.441 7.56168 17.2299 11.002 17.2299C14.4422 17.2299 17.2311 14.441 17.2311 11.0007C17.2311 7.56046 14.4422 4.77157 11.002 4.77157Z" fill="#76B420"/>
</svg>
