<svg width="20" height="22" viewBox="0 0 20 22" fill="none" xmlns="http://www.w3.org/2000/svg">
<mask id="mask0_180_417" style="mask-type:luminance" maskUnits="userSpaceOnUse" x="0" y="1" width="20" height="20">
<path d="M20 1H0V21H20V1Z" fill="white"/>
</mask>
<g mask="url(#mask0_180_417)">
<path d="M12.1213 8.87966C11.5784 8.33676 10.8284 8.00098 10 8.00098C9.17157 8.00098 8.42157 8.33676 7.87868 8.87966M12.1213 8.87966C12.6642 9.42255 13 10.1725 13 11.001C13 11.8294 12.6642 12.5794 12.1213 13.1223M12.1213 8.87966L16.364 4.63702M7.87868 8.87966C7.33579 9.42255 7 10.1725 7 11.001C7 11.8294 7.33579 12.5794 7.87868 13.1223M7.87868 8.87966L3.63604 4.63702M12.1213 13.1223C11.5784 13.6652 10.8284 14.001 10 14.001C9.17157 14.001 8.42157 13.6652 7.87868 13.1223M12.1213 13.1223L16.364 17.3649M16.364 4.63702C17.9926 6.2657 19 8.5157 19 11.001C19 13.4863 17.9926 15.7363 16.364 17.3649M16.364 4.63702C14.7353 3.00834 12.4853 2.00098 10 2.00098C7.51472 2.00098 5.26472 3.00834 3.63604 4.63702M7.87868 13.1223L3.63604 17.3649M3.63604 4.63702C2.00736 6.2657 1 8.5157 1 11.001C1 13.4863 2.00736 15.7363 3.63604 17.3649M16.364 17.3649C14.7353 18.9936 12.4853 20.001 10 20.001C7.51472 20.001 5.26472 18.9936 3.63604 17.3649" stroke="#76B420" stroke-width="1.5" stroke-linecap="round" stroke-linejoin="round"/>
</g>
</svg>
