<svg width="20" height="20" viewBox="0 0 20 20" fill="none" xmlns="http://www.w3.org/2000/svg">
<path d="M14 11H6M3 8H17V13.6C17 15.8498 17 16.9748 16.4271 17.7634C16.242 18.018 16.018 18.242 15.7634 18.4271C14.9748 19 13.8498 19 11.6 19H8.4C6.15016 19 5.02524 19 4.23664 18.4271C3.98196 18.242 3.75799 18.018 3.57295 17.7634C3 16.9748 3 15.8498 3 13.6V8ZM15 5V3.8C15 3.05005 15 2.67508 14.809 2.41221C14.7473 2.32732 14.6727 2.25266 14.5878 2.19098C14.3249 2 13.9499 2 13.2 2H11.7071C11.6228 2 11.5806 2 11.54 1.9978C11.1988 1.97928 10.8741 1.84478 10.6197 1.61658C10.5894 1.58942 10.5596 1.55961 10.5 1.5V1.5C10.4404 1.44039 10.4106 1.41058 10.3803 1.38342C10.1259 1.15522 9.80122 1.02072 9.45997 1.0022C9.41935 1 9.3772 1 9.29289 1H6.8C6.05005 1 5.67508 1 5.41221 1.19098C5.32732 1.25266 5.25266 1.32732 5.19098 1.41221C5 1.67508 5 2.05005 5 2.8V5H15ZM2.5 8H17.5C17.9659 8 18.1989 8 18.3827 7.92388C18.6277 7.82239 18.8224 7.62771 18.9239 7.38268C19 7.19891 19 6.96594 19 6.5V6.5C19 6.03406 19 5.80109 18.9239 5.61732C18.8224 5.37229 18.6277 5.17761 18.3827 5.07612C18.1989 5 17.9659 5 17.5 5H2.5C2.03406 5 1.80109 5 1.61732 5.07612C1.37229 5.17761 1.17761 5.37229 1.07612 5.61732C1 5.80109 1 6.03406 1 6.5V6.5C1 6.96594 1 7.19891 1.07612 7.38268C1.17761 7.62771 1.37229 7.82239 1.61732 7.92388C1.80109 8 2.03406 8 2.5 8Z" stroke="#76B420" stroke-width="1.5" stroke-linecap="round" stroke-linejoin="round"/>
</svg>
