<svg width="16" height="12" viewBox="0 0 16 12" fill="none" xmlns="http://www.w3.org/2000/svg">
<path d="M6.25 0.75C3.3833 1.42229 1.25 3.97909 1.25 7.03057V8.52182M14.75 0.75C11.8833 1.42229 9.75 3.97909 9.75 7.03057V8.52182" stroke="#0C2518" stroke-width="1.5" stroke-linecap="round" stroke-linejoin="round"/>
<path d="M15.5 8.75C15.5 6.95507 14.0449 5.5 12.25 5.5C10.4551 5.5 9 6.95507 9 8.75C9 10.5449 10.4551 12 12.25 12C14.0449 12 15.5 10.5449 15.5 8.75Z" fill="#0C2518" fill-opacity="0.98"/>
<path d="M7 8.75C7 6.95508 5.54493 5.5 3.75 5.5C1.95508 5.5 0.5 6.95507 0.5 8.75C0.5 10.5449 1.95507 12 3.75 12C5.54493 12 7 10.5449 7 8.75Z" fill="#0C2518" fill-opacity="0.98"/>
</svg>
