<svg width="20" height="22" viewBox="0 0 20 22" fill="none" xmlns="http://www.w3.org/2000/svg">
<mask id="mask0_180_411" style="mask-type:luminance" maskUnits="userSpaceOnUse" x="0" y="1" width="20" height="20">
<path d="M20 1H0V21H20V1Z" fill="white"/>
</mask>
<g mask="url(#mask0_180_411)">
<path d="M1 8C1 6.13895 1 5.20843 1.30148 4.47652C1.70761 3.49058 2.49058 2.70761 3.47652 2.30148C4.20843 2 5.13562 2 6.99 2H7M19 8C19 6.13895 19 5.20843 18.6985 4.47652C18.2924 3.49058 17.5094 2.70761 16.5235 2.30148C15.7916 2 14.8644 2 13.01 2H13M1 14C1 15.861 1 16.7916 1.30148 17.5235C1.70761 18.5094 2.49058 19.2924 3.47652 19.6985C4.20843 20 5.13562 20 6.99 20H7M19 14C19 15.861 19 16.7916 18.6985 17.5235C18.2924 18.5094 17.5094 19.2924 16.5235 19.6985C15.7916 20 14.8644 20 13.01 20H13" stroke="#76B420" stroke-width="1.5" stroke-linecap="round" stroke-linejoin="round"/>
</g>
</svg>
