<svg width="18" height="21" viewBox="0 0 18 21" fill="none" xmlns="http://www.w3.org/2000/svg">
<path d="M10.3173 3.5923C6.36235 0.955403 4.3849 -0.363043 2.76837 0.0939081C2.26146 0.237197 1.79163 0.48863 1.39121 0.830897C0.114258 1.9224 0.114258 4.29908 0.114258 9.05244V11.9489C0.114258 16.7017 0.114258 19.0782 1.3911 20.1697C1.79148 20.5119 2.26128 20.7634 2.76816 20.9067C4.38457 21.3637 6.36195 20.0456 10.3167 17.4094L12.489 15.9613C15.7546 13.7845 17.3874 12.6961 17.6828 11.2133C17.7764 10.7432 17.7764 10.2593 17.6828 9.78925C17.3876 8.3064 15.755 7.21783 12.4896 5.04067L10.3173 3.5923Z" fill="#0C2518"/>
</svg>
