<svg width="18" height="17" viewBox="0 0 18 17" fill="none" xmlns="http://www.w3.org/2000/svg">
<path fill-rule="evenodd" clip-rule="evenodd" d="M9 16.625C13.4873 16.625 17.125 12.9873 17.125 8.5C17.125 4.01269 13.4873 0.375 9 0.375C4.51269 0.375 0.875 4.01269 0.875 8.5C0.875 12.9873 4.51269 16.625 9 16.625ZM11.9419 7.27527C12.186 7.0312 12.186 6.63547 11.9419 6.39139C11.6979 6.14731 11.3021 6.14731 11.0581 6.39139L8.16667 9.28278L6.94194 8.05806C6.69786 7.81398 6.30214 7.81398 6.05806 8.05806C5.81398 8.30214 5.81398 8.69786 6.05806 8.94194L7.72472 10.6086C7.9688 10.8527 8.36453 10.8527 8.60861 10.6086L11.9419 7.27527Z" fill="#76B420"/>
</svg>
