<svg width="19" height="19" viewBox="0 0 19 19" fill="none" xmlns="http://www.w3.org/2000/svg">
<path fill-rule="evenodd" clip-rule="evenodd" d="M14.2562 0.792987C15.2335 0.613378 16.088 0.548017 16.7003 0.527525C17.1031 0.514048 17.3044 0.50731 17.5132 0.568504C17.9122 0.685458 18.3148 1.08809 18.4318 1.48708C18.493 1.69585 18.4863 1.89722 18.4728 2.29995C18.4523 2.91232 18.3869 3.76675 18.2073 4.74406C17.8632 6.61665 17.0882 9.00085 15.3458 10.9803L15.1175 15.3669C15.0163 17.3115 13.4101 18.8362 11.4629 18.8362C9.50254 18.8362 7.89035 17.2914 7.80675 15.3328L7.76363 14.3224L4.67788 11.2367L3.66753 11.1935C1.70891 11.1099 0.164062 9.49775 0.164062 7.53735C0.164062 5.59017 1.68883 3.98398 3.63338 3.88277L8.01998 3.65446C9.99944 1.91207 12.3836 1.13713 14.2562 0.792987ZM12.2521 8.9174C12.2521 10.114 11.2821 11.0841 10.0854 11.0841C8.88883 11.0841 7.91878 10.114 7.91878 8.9174C7.91878 7.72079 8.88883 6.75074 10.0854 6.75074C11.2821 6.75074 12.2521 7.72079 12.2521 8.9174Z" fill="#76B420"/>
</svg>
