<svg width="20" height="23" viewBox="0 0 20 23" fill="none" xmlns="http://www.w3.org/2000/svg">
<mask id="mask0_180_405" style="mask-type:luminance" maskUnits="userSpaceOnUse" x="0" y="1" width="20" height="21">
<path d="M20 1H0V22H20V1Z" fill="white"/>
</mask>
<g mask="url(#mask0_180_405)">
<path d="M7.49983 11.4998L8.33365 12.6116C8.60537 12.9739 8.74123 13.155 8.92277 13.1948C8.98086 13.2075 9.04075 13.2097 9.09963 13.2014C9.28364 13.1754 9.43274 13.005 9.73096 12.6642L12.4998 9.49976M9.99982 20.4998C14.5463 20.4998 17.3845 15.4508 18.5143 10.1227C18.7775 8.88177 18.909 8.26133 18.6895 7.52784C18.6253 7.31317 18.5029 7.03596 18.3876 6.84385C17.9935 6.18742 17.3563 5.81377 16.082 5.06646L12.7314 3.10164C11.5505 2.40909 10.96 2.06282 10.3174 1.99441C10.1063 1.97192 9.89335 1.97192 9.68219 1.99441C9.03965 2.06282 8.44918 2.40909 7.2682 3.10164L3.91767 5.06646C2.64331 5.81377 2.00613 6.18742 1.61205 6.84385C1.49671 7.03596 1.37434 7.31318 1.31009 7.52784C1.09058 8.26133 1.22216 8.88177 1.4853 10.1227C2.61516 15.4508 5.45333 20.4998 9.99982 20.4998Z" stroke="#76B420" stroke-width="1.5" stroke-linecap="round" stroke-linejoin="round"/>
</g>
</svg>
