<svg id="Capa_1" enable-background="new 0 0 512 512" height="512" viewBox="0 0 512 512" width="512" xmlns="http://www.w3.org/2000/svg"><g><path d="m435.699 77.37c-48.153-37.963-111.971-58.87-179.699-58.87s-131.546 20.907-179.699 58.87c-49.203 38.791-76.301 90.688-76.301 146.13s27.098 107.339 76.301 146.13c48.153 37.963 111.971 58.87 179.699 58.87 15.219 0 30.373-1.069 45.25-3.187v53.187c0 4.611 2.12 8.965 5.75 11.809 2.667 2.089 5.931 3.192 9.251 3.191 1.198 0 2.404-.144 3.592-.437 34.694-8.559 82.733-43.684 119.539-87.403 21.631-25.695 38.836-53.226 51.137-81.828 14.253-33.145 21.481-66.902 21.481-100.332 0-55.442-27.098-107.339-76.301-146.13zm-297.166 217.046c-11.465.064-19.287.092-24.674.092-11.166 0-11.881-.123-12.961-.308-7.201-1.234-12.466-7.478-12.466-14.785v-99.915c0-8.284 6.716-15 15-15s15 6.716 15 15v84.994c5.999-.012 13.147-.04 19.933-.078h.086c8.245 0 14.952 6.66 14.998 14.916.046 8.284-6.632 15.038-14.916 15.084zm64.636-14.916c0 8.284-6.716 15-15 15s-15-6.716-15-15v-100c0-8.284 6.716-15 15-15s15 6.716 15 15zm112.898 13.156c-6.875 2.149-14.1-.483-18.411-6.707l-40.152-58.144v51.695c0 8.284-6.716 15-15 15s-15-6.716-15-15v-99.813c0-6.564 4.269-12.367 10.536-14.32 6.265-1.951 13.076.395 16.807 5.797l42.308 61.265-.51-52.784c-.08-8.284 6.57-15.064 14.854-15.145h.148c8.217 0 14.917 6.62 14.996 14.855l.935 96.63c.001.048.001.097.001.145-.001 7.853-4.52 14.34-11.512 16.526zm89.394-78.156c8.284 0 15 6.716 15 15s-6.716 15-15 15h-24.029v20h27.136c8.284 0 15 6.716 15 15s-6.716 15-15 15h-42.136c-8.284 0-15-6.716-15-15v-100c0-8.284 6.716-15 15-15h42.136c8.284 0 15 6.716 15 15s-6.716 15-15 15h-27.136v20z"/></g></svg>