<svg width="1029" height="841" viewBox="0 0 1029 841" fill="none" xmlns="http://www.w3.org/2000/svg">
<path d="M858.104 1.67119C852.449 1.69999 846.798 2.39522 841.152 3.92355C758.945 26.8357 719.993 84.6841 685.828 135.51C647.041 193.024 613.702 242.68 530.858 238.77C427.718 233.797 342.288 212.072 273.51 194.594C204.067 176.953 149.112 163.07 110.094 175.765C61.4457 191.508 43.5061 228.089 30.3388 254.815C23.9198 267.844 18.3237 279.203 10.8681 284.739L11.8729 286.067C19.6593 280.196 25.2554 268.837 31.839 255.474C44.8417 229.082 62.783 192.834 110.767 177.261C149.287 164.735 204.076 178.619 273.186 196.095C341.963 213.573 427.56 235.297 530.866 240.269C614.542 244.342 649.862 191.844 687.329 136.336C721.495 85.6762 760.116 28.1627 841.824 5.41968C869.227 -2.21772 896.736 10.9717 925.58 24.8207C956.091 39.4944 987.602 54.6627 1019.81 43.8351L1019.3 42.3381C987.76 52.9957 956.582 37.9923 926.405 23.4835C902.73 12.2741 880.389 1.55768 858.104 1.67119Z" fill="#76B420"/>
<path d="M859.906 27.4699C854.418 27.4979 848.933 28.1923 843.452 29.7198C762.736 51.6252 723.939 107.475 689.599 156.803C650.804 212.819 617.124 261.144 535.105 256.23C431.292 250.094 346.176 225.035 277.717 205.055C241.571 194.409 210.257 185.238 183.125 180.877C152.996 175.866 131.543 176.308 113.61 181.898C67.4492 196.463 49.3231 229.213 34.8233 255.613C26.9133 269.816 20.1572 282.014 10.7032 287.061L11.5425 288.556C21.3283 283.341 28.249 270.809 36.3244 256.438C50.6596 230.372 68.6211 197.956 114.118 183.562C131.718 177.974 152.839 177.699 182.802 182.712C209.934 187.072 241.082 196.245 277.227 206.891C345.687 227.036 430.969 251.928 534.949 258.23C617.966 263.139 653.461 212.139 690.937 158.129C724.945 108.969 763.577 53.4538 843.795 31.7175C870.867 24.4149 897.877 37.2737 926.554 50.9572C956.731 65.2996 987.908 80.1367 1019.62 69.9778L1019.11 68.3142C987.899 78.3039 957.055 63.6317 927.211 49.4543C904.2 37.908 882.026 27.3572 859.906 27.4699Z" fill="#76B420"/>
<path d="M861.71 53.2691C856.388 53.2962 851.069 53.9898 845.754 55.3499C766.527 76.2485 727.72 130.266 693.538 177.929C654.567 232.447 620.714 279.441 539.354 273.691C434.701 266.393 349.732 238 281.424 215.353C245.271 203.374 214.116 192.869 187.147 188.007C156.182 182.333 134.56 182.277 116.792 187.7C72.7863 201.087 54.1506 231.841 39.1429 256.578C30.24 271.786 22.1575 284.824 10.7032 289.048L11.2099 290.545C23.3286 286.151 31.4094 272.78 40.8104 257.403C55.6534 233 74.1237 202.413 117.632 189.362C135.069 184.107 156.524 184.165 187.155 189.674C213.958 194.536 245.113 204.874 281.1 216.855C349.408 239.667 434.543 267.893 539.362 275.357C621.72 281.102 657.389 231.433 695.04 178.921C729.057 131.426 767.533 77.743 846.262 57.0135C873.002 49.879 899.679 62.5732 928.022 75.9254C957.699 89.9372 988.543 104.443 1019.93 94.9521L1019.42 93.2885C988.533 102.61 958.189 88.2685 928.678 74.2558C905.672 63.709 883.664 53.1572 861.71 53.2691Z" fill="#76B420"/>
<path d="M863.513 79.2334C858.357 79.2596 853.204 79.7858 848.055 81.145C770.318 101.037 731.668 153.222 697.642 199.218C658.496 252.072 624.636 297.901 543.769 291.315C438.11 282.689 353.289 251.129 285.132 225.649C249.137 212.169 218.142 200.663 191.67 195.466C159.537 189.131 138.245 188.573 120.642 193.828C78.6258 206.206 59.4805 234.964 44.1321 258.203C33.5701 274.253 24.3267 287.964 10.7049 291.199L11.0461 292.864C25.3323 289.459 34.7404 275.414 45.4678 259.196C60.6516 236.291 79.6306 207.534 120.983 195.493C138.421 190.405 159.546 190.797 191.346 197.133C217.651 202.331 248.647 213.837 284.475 227.318C352.799 252.797 437.62 284.524 543.612 293.148C625.31 299.73 660.988 251.559 698.812 200.378C732.672 154.55 771.159 102.699 848.397 82.9762C874.807 76.1764 901.15 88.5393 929.16 101.727C958.503 115.407 988.847 129.583 1019.9 120.76L1019.4 119.096C988.837 127.75 958.827 113.739 929.817 100.057C907.142 89.3419 885.301 79.1223 863.513 79.2334Z" fill="#76B420"/>
<path d="M865.312 105.026C860.322 105.052 855.335 105.577 850.352 106.935C774.107 125.82 735.447 176.173 701.578 220.502C662.258 271.858 628.223 316.188 548.183 308.765C441.353 298.978 356.68 263.918 288.508 235.605C252.838 220.79 222.003 208.117 196.028 202.584C163.226 195.586 141.766 194.696 124.161 199.618C83.9693 210.987 64.4826 238.08 48.9609 259.988C37.0717 276.712 26.6673 291.095 10.711 293.176L10.8859 294.841C27.6738 292.756 38.0765 278.039 50.2966 260.981C65.82 239.407 84.9749 212.482 124.669 201.282C141.941 196.361 163.235 197.253 195.704 204.252C221.513 209.786 252.348 222.459 287.851 237.275C356.023 265.587 440.863 300.647 548.026 310.432C629.063 317.85 664.915 271.011 702.914 221.495C736.783 177.332 775.113 127.315 850.86 108.599C876.773 102.135 902.949 114.332 930.624 127.022C959.467 140.371 989.476 154.215 1020.2 146.06L1019.7 144.397C989.633 152.382 959.957 138.703 931.281 125.352C908.441 114.971 886.767 104.917 865.312 105.026Z" fill="#76B420"/>
<path d="M867.11 130.819C862.286 130.844 857.466 131.368 852.648 132.559C777.894 150.437 739.389 198.789 705.512 241.453C666.017 291.31 631.809 334.309 552.43 326.049C444.427 314.935 359.736 276.376 291.716 245.396C256.372 229.246 225.863 215.405 200.385 209.536C166.581 201.71 145.451 200.485 127.679 205.241C89.1456 215.769 69.4847 241.364 53.6234 261.94C40.4061 279.17 29.0071 294.225 10.5481 294.819L10.5567 296.486C29.6801 295.722 41.4109 280.498 54.7928 262.934C71.3151 241.521 89.8177 217.099 127.853 206.74C145.293 201.985 166.089 203.212 199.727 211.039C225.039 216.909 255.548 230.75 290.725 246.734C358.911 277.713 443.769 316.272 551.938 327.551C632.149 335.807 668.174 290.3 706.514 242.281C740.226 199.785 778.4 151.767 852.821 133.892C878.404 127.762 904.245 139.628 931.587 152.153C960.096 165.171 989.606 178.851 1019.84 171.198L1019.5 169.534C989.762 176.85 960.586 163.502 932.244 150.483C909.905 140.599 888.399 130.711 867.11 130.819Z" fill="#76B420"/>
<path d="M868.908 156.612C864.251 156.636 859.596 157.16 854.944 158.183C781.515 175.054 743.333 221.573 709.447 262.57C669.777 310.763 635.395 352.429 556.677 343.499C447.337 331.06 362.626 289.001 294.592 255.355C259.575 238.037 229.392 223.027 204.411 216.823C169.938 208.334 148.64 206.776 130.867 211.366C93.826 221.053 74.8182 244.311 58.1243 264.726C43.5789 282.463 31.1837 297.856 10.2228 297.13L10.2314 298.796C31.8575 299.519 44.5845 283.957 59.46 265.719C75.9885 245.472 94.8308 222.381 131.374 212.863C148.814 208.275 169.78 210.001 204.086 218.324C228.9 224.363 258.916 239.373 293.934 256.691C362.135 290.503 447.012 332.561 556.519 345C636.069 354.092 672.268 310.083 710.617 263.564C744.171 222.735 782.354 176.55 855.119 159.682C880.37 153.888 905.878 165.422 932.886 177.782C960.894 190.469 989.904 203.819 1019.97 197L1019.63 195.335C990.227 201.984 961.385 188.967 933.544 176.279C911.371 166.227 890.031 156.505 868.908 156.612Z" fill="#76B420"/>
<path d="M870.54 182.572C866.049 182.595 861.561 183.118 857.076 184.141C785.138 200.171 746.946 244.691 713.384 284.021C673.372 330.549 638.983 370.883 561.093 361.282C450.414 347.516 365.685 301.957 297.635 265.312C263.109 246.659 233.254 230.647 208.937 224.273C183.288 217.572 156.481 212.043 134.554 217.487C98.8389 226.334 79.8249 248.427 63.1249 267.675C47.4177 285.918 33.6934 301.651 10.3953 299.271L10.2376 300.938C34.3673 303.314 48.2561 287.246 64.4606 268.668C80.9943 249.42 99.8437 227.662 135.061 218.984C156.49 213.709 183.13 219.072 208.612 225.774C232.763 232.15 262.618 248.161 296.976 266.648C361.524 301.479 450.089 349.017 560.934 362.782C639.657 372.546 676.197 330.034 714.719 285.013C748.282 245.85 786.309 201.498 857.582 185.638C882.503 180.012 907.677 191.381 934.517 203.409C962.192 215.932 990.7 228.783 1020.44 222.633L1020.1 220.968C991.023 226.949 962.682 214.263 935.341 201.905C912.836 192.021 891.663 182.465 870.54 182.572Z" fill="#76B420"/>
<path d="M872.338 208.365C868.014 208.387 863.691 208.743 859.372 209.765C788.926 224.788 750.89 267.474 717.319 305.138C677.133 350.167 642.57 389.003 565.339 378.566C453.322 363.473 364.905 312.268 300.509 274.77C266.476 254.948 236.948 237.935 213.128 231.225C182.98 222.88 158.505 218.172 138.072 223.109C103.684 231.283 84.664 252.209 67.7923 270.459C50.7561 289.042 36.2018 305.113 10.2338 301.08L9.90969 302.748C36.7094 306.777 51.5954 290.537 68.9626 271.619C85.5016 253.371 104.357 232.779 138.413 224.774C158.681 220.005 182.656 224.548 212.638 232.893C236.29 239.438 265.652 256.452 299.518 276.275C364.247 313.771 452.665 364.977 565.015 380.234C643.077 390.667 679.791 349.654 718.488 306.132C753.548 266.794 789.765 226.283 859.712 211.263C884.302 205.972 909.309 217.175 935.649 228.872C962.823 241.064 990.997 253.585 1020.24 248.103L1019.9 246.439C991.154 251.751 963.314 239.395 936.307 227.369C914.301 217.65 893.129 208.259 872.338 208.365Z" fill="#76B420"/>
<path d="M157.888 227.322C152.067 227.351 146.581 227.879 141.431 229.072C108.204 236.74 89.1773 256.333 72.4686 273.915C54.2698 292.837 38.7185 309.08 10.0808 303.394L9.75669 305.062C39.2269 310.911 55.1092 294.333 73.6389 275.075C90.183 257.828 109.044 238.235 141.772 230.736C162.04 226.134 186.35 231.176 216.834 240.018C239.822 246.733 268.855 264.748 302.228 285.574C366.971 325.902 455.409 380.94 569.263 397.523C646.664 408.792 683.551 369.112 722.422 327.255C757.325 289.751 793.551 250.907 861.84 236.895C886.098 231.939 910.771 242.811 936.777 254.342C963.617 266.203 991.291 278.393 1020.04 273.58L1019.7 271.916C991.282 276.726 963.941 264.535 937.269 252.84C910.929 241.31 886.09 230.272 861.333 235.398C792.379 249.413 754.5 290.265 721.087 326.262C680.726 369.626 645.823 407.13 569.421 396.022C455.901 379.605 367.63 324.566 303.054 284.403C269.514 263.412 240.48 245.397 217.159 238.684C194.337 231.801 174.853 227.235 157.888 227.322Z" fill="#76B420"/>
<path d="M160.085 233.463C154.763 233.49 149.609 234.016 144.791 235.04C112.56 242.037 93.6949 260.796 76.9813 277.378C57.6193 296.472 41.0711 312.887 9.76309 305.381L9.43903 307.049C41.5804 314.884 58.4587 297.968 78.1515 278.538C94.6997 262.124 113.399 243.532 145.132 236.705C165.401 232.269 190.046 237.809 221.032 247.316C243.521 254.199 270.559 272.225 304.94 295.044C369.696 338.039 458.319 397.074 573.509 414.983C650.247 426.922 687.142 388.742 726.354 348.55C761.098 312.714 797.167 275.704 863.964 262.699C887.891 258.078 912.229 268.619 938.067 279.818C964.406 291.348 991.745 303.206 1020.17 299.062L1019.99 297.396C992.069 301.538 964.896 289.679 938.891 278.314C912.885 266.949 888.214 256.244 863.789 261.034C796.327 274.042 758.605 313.06 725.183 347.223C684.648 388.921 649.573 425.093 573.667 413.316C458.643 395.406 370.353 336.536 305.764 293.541C271.382 270.554 244.178 252.53 221.521 245.48C197.7 238.27 177.549 233.374 160.085 233.463Z" fill="#76B420"/>
<path d="M162.615 239.602C157.625 239.628 152.805 240.152 148.318 241.008C117.249 247.498 98.3794 265.258 81.6616 281.006C61.3028 300.272 43.5915 316.859 9.77951 307.534L9.28912 309.202C44.1007 318.856 61.9767 301.935 82.8327 282.333C99.385 266.752 117.923 249.161 148.66 242.673C168.929 238.404 193.076 244.112 225.397 254.612C247.222 261.666 273.931 280.525 307.652 304.515C372.422 350.341 461.064 413.209 577.924 432.609C653.833 445.219 691.068 408.703 730.62 369.843C765.206 335.841 801.117 300.499 866.587 288.501C890.183 284.215 914.354 294.589 939.857 305.457C965.695 316.656 992.533 328.183 1020.62 324.708L1020.45 323.042C992.857 326.515 966.186 314.987 940.515 303.954C914.844 292.921 890.507 282.38 866.412 286.836C800.444 299.003 762.879 336.02 729.615 368.516C688.739 408.549 653.49 443.221 578.413 430.773C461.886 411.372 373.411 348.67 308.808 303.009C274.921 279.021 248.211 259.994 226.053 252.942C200.564 244.741 180.245 239.512 162.615 239.602Z" fill="#76B420"/>
<path d="M165.145 245.575C160.488 245.599 156.165 245.954 151.845 246.81C121.605 252.796 102.898 269.721 86.3426 284.635C64.8207 304.074 46.2788 320.831 9.62861 309.354L9.13823 311.023C46.7872 322.661 65.4945 305.736 87.3473 285.963C103.737 271.216 122.278 254.292 152.02 248.475C172.458 244.538 196.772 250.58 229.595 261.743C250.922 268.966 277.136 288.661 310.196 313.653C374.98 362.312 463.642 429.178 582.172 450.069C657.418 463.349 694.827 428.332 734.553 391.138C768.981 358.804 804.736 325.462 868.712 314.305C891.977 310.187 915.813 320.397 941.149 331.099C966.653 341.966 992.989 352.996 1020.58 350.189L1020.41 348.524C993.146 351.329 967.143 340.297 941.806 329.429C916.303 318.562 892.3 308.353 868.537 312.473C804.061 323.633 766.653 358.815 733.547 389.644C692.497 428.178 657.075 461.351 582.66 448.067C464.63 427.173 376.136 360.64 311.518 311.98C278.291 286.989 251.91 267.128 230.417 259.906C203.927 251.21 182.941 245.485 165.145 245.575Z" fill="#76B420"/>
<path d="M167.673 251.715C163.349 251.737 159.359 252.091 155.371 252.778C126.126 258.259 107.415 274.35 91.0225 288.597C68.503 308.041 49.1306 324.969 9.64308 311.507L9.15185 313.009C49.4726 326.8 69.3423 309.536 92.1928 289.758C108.42 275.678 126.965 259.587 155.877 254.275C176.482 250.504 201.131 257.043 234.123 268.706C254.785 276.099 280.503 296.463 313.07 322.457C377.868 374.114 466.549 444.812 586.582 467.195C661.166 481.144 698.914 447.626 738.815 412.098C773.085 381.431 808.682 349.924 871.167 339.774C894.1 335.991 917.768 345.868 942.771 356.405C967.773 366.942 993.608 377.641 1020.87 375.502L1020.7 373.837C993.932 375.973 968.263 365.273 943.428 354.902C918.259 344.366 894.424 334.323 870.992 338.109C808.008 348.261 770.758 381.609 737.811 410.937C696.587 447.805 660.824 479.48 587.073 465.692C467.373 443.308 378.859 372.776 314.228 321.285C281.495 295.291 255.775 274.594 234.78 267.203C207.455 257.678 185.968 251.622 167.673 251.715Z" fill="#76B420"/>
<path d="M170.204 257.855C166.212 257.875 162.389 258.228 158.733 258.913C130.318 263.89 111.77 279.314 95.3743 292.894C71.858 312.509 51.6533 329.275 9.32862 313.828L8.8374 315.33C51.9954 331.106 72.6973 314.005 96.5445 294.055C113.437 279.972 130.991 265.386 159.074 260.411C179.679 256.807 204.662 263.678 238.157 276.171C258.153 283.567 283.543 304.765 315.449 331.763C380.261 386.252 469.128 460.947 590.665 484.988C664.586 499.608 702.509 467.589 742.584 433.727C776.697 404.893 812.136 375.053 873.127 365.745C895.729 362.297 919.063 372.009 943.898 382.213C968.399 392.419 993.733 402.787 1020.5 401.318L1020.33 399.653C993.891 401.12 968.723 390.751 944.389 380.711C919.387 370.341 895.886 360.63 872.787 364.247C811.296 373.558 775.858 403.564 741.413 432.566C699.848 467.603 663.913 497.945 590.824 483.488C469.619 459.445 380.92 384.916 316.274 330.592C284.202 303.596 258.811 282.23 238.482 274.836C210.819 264.313 188.831 257.76 170.204 257.855Z" fill="#76B420"/>
<path d="M172.898 263.827C169.239 263.846 165.748 264.197 162.258 264.715C134.506 269.188 116.949 283.274 99.8882 296.858C75.3743 316.478 54.3383 333.247 9.17551 315.648L8.51798 317.151C54.514 335.079 77.0408 317.135 100.892 298.019C117.787 284.603 135.179 270.685 162.432 266.214C183.371 262.774 208.522 270.144 242.353 283.302C261.851 290.867 286.579 312.735 317.99 340.568C382.817 398.056 471.704 476.749 594.911 502.448C668.17 517.737 706.266 487.218 746.681 455.02C780.636 427.854 815.752 399.849 875.251 391.548C897.687 388.434 920.688 397.815 945.188 407.854C969.189 417.729 994.188 427.765 1020.46 426.965L1020.45 425.299C994.513 426.264 969.845 416.059 945.846 406.351C921.179 396.312 897.845 386.767 875.077 390.049C815.079 398.353 779.798 426.525 745.677 453.859C703.937 487.229 667.828 516.073 595.236 500.947C472.361 475.246 383.643 396.885 318.982 339.563C287.571 311.731 262.676 289.696 242.845 281.966C214.347 270.781 191.858 263.731 172.898 263.827Z" fill="#76B420"/>
<path d="M175.594 269.8C172.268 269.817 168.942 270.001 165.785 270.517C138.864 274.819 121.304 288.239 104.406 301.155C79.0606 320.778 57.0269 337.553 9.19245 317.802L8.53493 319.305C57.369 339.384 80.7271 321.436 105.577 302.482C122.308 289.566 139.537 276.316 166.126 272.181C187.231 268.908 212.718 276.776 246.883 290.431C265.716 298 290.114 320.536 320.864 349.205C385.706 409.525 474.613 492.383 599.657 519.738C672.253 535.697 710.689 506.676 751.279 476.144C785.076 450.645 820.034 424.474 878.04 417.014C900.146 414.235 922.979 423.45 947.311 433.157C970.81 442.534 995.311 452.74 1021.09 452.442L1021.08 451.109C1020.91 451.11 1020.75 451.111 1020.58 451.112C995.303 451.241 971.136 441.366 947.97 431.987C923.471 422.114 900.471 412.734 877.867 415.682C819.362 423.145 784.239 449.483 750.442 474.982C708.361 506.688 671.912 534.033 600.148 518.236C475.603 490.878 386.864 408.353 322.189 348.032C291.273 319.364 266.873 296.661 247.707 288.928C217.877 277.249 195.052 269.701 175.594 269.8Z" fill="#76B420"/>
<path d="M178.288 275.939C175.129 275.956 172.136 276.137 169.145 276.653C142.887 280.452 125.489 293.204 108.756 305.619C82.5782 325.08 59.7133 341.859 9.04082 319.956L8.3833 321.459C60.0562 343.856 84.2456 325.905 109.927 306.946C126.495 294.698 143.726 281.947 169.486 278.317C190.925 275.209 216.58 283.576 250.915 297.897C269.248 305.468 292.984 328.674 323.073 358.179C387.929 421.497 476.856 508.353 603.572 537.532C675.505 553.995 714.116 526.805 755.046 497.772C788.686 474.107 823.318 449.437 879.832 442.985C901.606 440.541 924.437 449.422 948.436 458.964C971.434 468.011 995.266 477.553 1020.55 477.924L1020.54 476.258C995.424 475.886 971.759 466.51 948.927 457.462C924.596 447.922 901.764 438.874 879.491 441.32C822.478 447.776 787.679 472.446 753.874 496.278C711.451 526.153 674.83 552.165 603.729 535.699C477.513 506.683 388.753 419.993 324.064 356.841C293.809 327.336 269.906 303.965 251.405 296.228C221.57 283.717 198.079 275.839 178.288 275.939Z" fill="#76B420"/>
<path d="M181.15 281.912C178.323 281.926 175.497 282.107 172.838 282.454C147.243 285.917 130.01 298.167 113.439 309.915C87.2577 328.543 62.568 346.164 8.89042 321.944L8.23291 323.447C62.7437 347.996 87.7653 330.207 114.278 311.244C130.682 299.497 147.75 287.414 172.846 284.12C194.618 281.177 220.442 290.042 255.112 305.028C272.782 312.769 296.188 336.476 325.614 366.651C386.808 429.321 479.433 523.988 607.819 554.825C679.089 571.957 718.04 546.266 759.312 519.064C792.627 497.067 827.103 474.232 882.123 468.62C903.732 466.343 926.23 475.226 950.227 484.435C972.724 493.151 995.888 502.197 1020.84 503.236L1020.83 501.57C996.212 500.529 973.215 491.649 950.884 482.932C926.72 473.558 904.056 464.676 882.115 466.953C826.761 472.567 792.12 495.404 758.472 517.569C717.533 544.603 678.913 570.125 608.309 553.157C480.422 522.317 387.965 427.982 326.939 365.478C297.345 335.137 273.938 311.264 255.936 303.524C225.266 290.184 201.44 281.808 181.15 281.912Z" fill="#76B420"/>
<path d="M183.679 287.885C181.184 287.898 178.69 288.077 176.198 288.423C151.267 291.549 134.197 303.133 117.791 314.546C90.7771 333.012 65.4223 350.636 8.73976 324.099L8.08226 325.602C65.4318 352.468 91.2846 334.675 118.795 315.874C135.036 304.628 151.94 293.045 176.539 290.088C198.477 287.31 225.636 297.002 259.642 312.158C276.812 319.901 299.556 344.278 328.487 375.121C389.694 440.623 482.341 539.622 612.398 572.283C683.006 590.084 722.297 565.892 763.744 540.521C796.901 520.192 831.053 499.191 884.581 494.42C906.025 492.478 928.356 501.195 952.185 510.237C974.181 518.623 996.844 527.338 1020.97 528.881L1021.12 527.214C997.168 525.67 974.505 516.955 952.842 508.734C928.846 499.526 906.35 490.976 884.572 492.754C830.712 497.526 796.227 518.529 763.071 539.025C721.458 564.396 682.497 588.254 612.556 570.616C482.831 537.953 390.519 439.286 329.478 373.95C300.547 342.94 277.636 318.564 260.133 310.656C229.628 296.982 204.633 287.779 183.679 287.885Z" fill="#76B420"/>
<path d="M186.539 293.858C184.211 293.87 181.884 294.048 179.722 294.226C155.289 297.016 138.383 308.099 122.141 319.011C94.296 337.481 68.1083 354.775 8.58785 326.087L7.93036 327.59C68.2849 356.774 94.8035 339.144 122.98 320.506C139.223 309.76 155.797 298.679 179.898 296.057C199.346 293.959 222.829 300.504 263.839 319.456C280.51 327.202 302.757 352.081 330.859 383.428C392.08 451.762 484.582 555.092 616.478 589.743C686.589 608.213 726.055 585.686 767.842 561.814C800.675 543.152 834.669 523.819 886.704 520.055C907.984 518.447 930.312 526.831 953.975 535.874C975.304 543.929 997.299 552.148 1020.93 554.36L1021.08 552.693C997.623 550.48 975.794 542.261 954.466 534.372C930.637 525.329 908.142 516.947 886.53 518.556C834.162 522.322 800.003 541.823 767.004 560.485C725.548 584.022 686.247 606.382 616.803 588.242C485.407 553.755 393.072 450.591 332.018 382.423C303.748 350.743 281.334 325.865 264.33 317.954C233.488 303.449 207.993 293.748 186.539 293.858Z" fill="#76B420"/>
<path d="M189.565 299.829C187.403 299.84 185.242 300.018 183.081 300.195C159.312 302.649 142.569 313.231 126.325 323.644C97.8142 341.95 70.7952 359.248 8.4353 328.076L7.61151 329.58C70.8047 361.081 98.1554 343.614 127.163 324.972C143.242 314.727 159.819 304.146 183.255 301.694C203.202 299.76 226.854 306.637 268.034 326.421C284.039 334.17 305.956 359.551 333.396 391.567C394.632 462.733 487.155 570.394 620.723 607.035C690.171 626.009 729.977 605.146 772.107 583.272C804.616 566.279 838.285 548.613 888.828 545.69C909.942 544.416 932.27 552.633 955.931 561.509C976.593 569.235 997.922 577.124 1020.89 579.839L1021.04 578.172C998.245 575.456 977.084 567.566 956.423 560.007C932.595 551.132 910.101 542.915 888.654 544.191C837.778 547.116 803.943 564.782 771.269 581.943C729.472 603.816 689.831 624.511 621.049 605.701C487.98 569.223 395.625 461.895 334.556 390.728C306.949 358.546 285.031 332.999 268.693 325.251C231.68 307.279 208.524 299.733 189.565 299.829Z" fill="#76B420"/>
<path d="M192.26 305.969C190.264 305.979 188.435 305.988 186.606 306.164C163.334 308.282 146.757 318.53 130.676 328.442C101.333 346.585 73.6486 363.72 8.28379 330.231L7.46001 331.735C73.658 365.553 101.675 348.249 131.514 329.77C147.43 320.026 163.841 309.779 186.781 307.829C206.895 306.061 231.548 313.599 272.231 333.886C287.737 341.637 308.991 367.354 335.935 400.039C397.185 474.203 489.564 586.196 624.97 624.827C693.756 644.47 733.903 625.272 776.373 605.063C808.558 589.737 841.903 573.739 890.953 571.657C911.902 570.717 934.396 578.933 958.056 587.477C978.05 594.706 998.544 602.266 1020.85 605.484L1021 603.817C999.035 600.597 978.541 593.204 958.547 585.975C934.72 577.265 912.06 569.05 890.778 569.992C841.395 572.076 807.884 588.074 775.534 603.567C733.396 623.609 693.414 642.639 625.294 623.159C490.388 584.692 398.176 472.865 337.094 399.034C309.984 366.349 288.729 340.466 272.889 332.549C235.706 313.745 211.717 305.87 192.26 305.969Z" fill="#76B420"/>
<path d="M195.12 311.941C193.457 311.95 191.628 311.959 189.966 312.134C167.191 313.916 150.778 323.83 134.862 333.241C104.687 351.222 76.3362 368.194 8.13287 332.386L7.30824 333.723C76.3457 370.026 105.193 352.719 135.7 334.569C151.45 325.159 167.698 315.413 190.14 313.633C210.754 312.028 235.74 319.898 276.426 340.851C291.434 348.605 312.19 374.657 338.471 407.846C399.736 485.008 492.304 601.497 629.382 642.119C697.671 662.264 738.16 644.897 780.972 626.519C812.832 612.861 845.853 598.531 893.41 597.289C914.361 596.683 937.02 604.732 960.845 613.274C980.006 620.174 999.667 627.238 1020.97 630.795L1021.3 629.128C1000.16 625.403 980.496 618.339 961.336 611.605C937.344 603.064 914.684 594.849 893.234 595.458C845.344 596.701 812.157 611.032 780.132 624.857C737.486 643.235 697.329 660.433 629.706 640.451C493.128 599.993 400.895 483.835 339.796 406.839C313.349 373.652 292.591 347.266 277.25 339.347C239.566 320.046 215.077 311.84 195.12 311.941Z" fill="#76B420"/>
<path d="M197.982 317.914C196.486 317.921 194.989 317.929 193.493 318.103C171.217 319.716 154.8 328.963 139.048 338.04C108.208 355.857 79.0243 372.5 7.81617 334.376L6.99241 335.88C79.0346 374.499 109.875 356.682 139.721 339.536C155.308 330.626 171.391 321.214 193.335 319.77C214.116 318.331 240.269 326.862 280.459 348.316C294.968 356.073 315.226 382.461 340.845 416.152C401.958 496.147 494.381 616.967 633.298 659.745C701.091 680.56 741.755 665.025 785.075 648.477C816.61 636.32 849.307 623.825 895.372 623.59C895.538 623.59 895.705 623.589 895.705 623.589C916.825 623.481 939.483 631.363 963.64 639.737C981.8 646.143 1000.63 652.711 1020.77 656.774L1021.09 655.106C1000.95 651.043 982.291 644.641 964.131 638.235C939.973 629.694 917.149 621.813 895.696 621.923C895.53 621.923 895.364 621.924 895.364 621.924C849.132 622.16 816.27 634.823 784.568 646.98C741.581 663.526 701.083 679.06 633.956 658.409C495.539 615.795 403.283 495.14 342.337 415.312C316.553 381.621 296.292 354.9 281.451 347.145C243.26 326.347 218.603 317.809 197.982 317.914Z" fill="#76B420"/>
<path d="M200.676 323.887C199.346 323.894 198.182 323.9 197.018 324.072C175.073 325.35 158.988 334.262 143.401 343.005C111.893 360.493 82.045 377.139 7.83124 336.531L7.00748 338.034C81.8882 378.972 113.562 361.484 144.24 344.5C159.662 335.925 175.747 327.013 197.193 325.737C218.64 324.462 244.961 333.325 285.155 355.612C299.164 363.372 318.926 390.095 343.88 424.122C405.008 507.115 497.287 632.434 638.043 677.201C705.174 698.685 746.344 684.647 790.006 669.93C820.386 659.613 851.763 649.123 894.335 648.907C895.499 648.901 896.663 648.895 897.993 648.888C919.447 649.112 942.937 657.156 967.76 665.694C984.754 671.605 1002.41 677.68 1021.23 682.082L1021.55 680.415C1002.74 676.012 985.244 669.937 968.252 664.192C943.261 655.489 919.771 647.445 897.985 647.222C853.081 646.784 820.875 657.778 789.499 668.434C746.17 683.149 705.164 696.853 638.534 675.699C498.444 630.929 406.167 505.943 345.205 423.116C319.079 387.595 300.155 362.034 285.979 354.109C247.62 332.978 221.796 323.779 200.676 323.887Z" fill="#76B420"/>
<path d="M203.536 329.859C202.538 329.864 201.54 329.869 200.376 329.875C178.929 330.984 162.842 339.562 147.419 347.804C116.572 364.289 84.5646 381.445 7.51248 338.52L6.68874 340.024C84.5749 383.445 116.914 366.12 148.092 349.3C163.349 341.059 179.27 332.648 200.385 331.541C222.497 330.429 248.987 339.79 289.183 362.578C302.693 370.339 321.957 397.398 346.247 431.595C376.567 474.258 414.258 527.214 462.906 576.615C520.582 635.133 579.152 673.654 641.954 694.494C708.588 716.48 750.101 704.439 794.27 691.553C825.156 682.565 857.037 673.24 899.949 674.521C922.07 675.075 946.559 683.447 972.381 692.312C987.874 697.565 1003.87 702.982 1021.02 707.559L1021.51 705.891C1004.36 701.48 988.531 695.896 973.038 690.643C947.049 681.779 922.56 673.406 900.107 672.854C856.863 671.741 824.815 681.068 793.93 690.055C750.092 702.773 708.912 714.812 642.612 692.991C500.848 646.063 408.714 516.413 347.739 430.754C322.277 394.897 303.85 369 290.007 361.24C251.479 339.278 225.32 329.748 203.536 329.859Z" fill="#76B420"/>
<path d="M206.23 335.663C205.398 335.668 204.733 335.671 203.901 335.675C182.786 336.449 167.03 344.693 151.605 352.602C120.093 368.922 87.4187 385.749 7.36143 340.34L6.70485 342.01C87.5961 387.914 120.601 370.753 152.445 354.263C167.704 346.355 183.294 338.279 204.077 337.507C226.523 336.726 254.18 346.582 293.546 369.873C306.557 377.47 325.323 404.864 349.116 439.397C379.276 483.393 416.809 538.015 465.798 589.246C523.818 650.094 582.894 690.278 646.532 711.946C712.669 734.601 754.689 724.224 799.034 713.336C829.428 705.851 860.819 698.194 902.404 700.148C925.857 701.195 950.846 709.732 979.665 719.415C992.992 723.845 1006.65 728.607 1021.31 732.864L1021.8 731.196C1007.31 726.938 993.483 722.343 980.322 717.745C951.335 707.897 926.18 699.361 902.56 698.315C860.809 696.362 829.252 704.019 798.859 711.504C754.68 722.392 712.991 732.6 647.188 710.11C503.42 661.194 407.745 521.734 350.442 438.557C325.643 402.364 307.715 376.298 294.371 368.536C256.005 345.74 228.679 335.549 206.23 335.663Z" fill="#76B420"/>
<path d="M7.38084 342.66L6.55712 344.163C90.2872 392.552 123.957 375.554 156.634 359.394C172.392 351.483 187.32 344.077 207.605 343.474C230.717 342.857 258.708 353.21 297.911 377.168C310.422 384.768 327.853 411.002 351.82 447.199C409.138 533.54 504.838 677.83 650.779 729.567C716.42 752.89 758.782 744.345 803.635 735.453C833.538 729.47 864.603 723.315 904.529 726.11C930.313 727.812 958.634 737.497 991.451 748.659C1000.95 751.943 1010.94 755.224 1021.1 758.671L1021.59 757.002C1011.27 753.723 1001.44 750.274 991.942 746.991C958.957 735.83 930.637 726.144 904.519 724.278C864.261 721.484 833.197 727.806 803.294 733.789C758.607 742.68 716.411 751.058 651.27 727.898C505.828 676.325 410.296 532.368 353.145 446.193C329.011 409.83 311.58 383.429 298.735 375.664C259.198 351.542 231.041 341.189 207.43 341.809C186.813 342.414 171.054 350.157 155.795 357.899C123.783 373.889 90.4432 390.552 7.38084 342.66Z" fill="#76B420"/>
<path d="M7.23085 344.65L6.40714 346.153C93.1412 396.858 127.479 380.357 160.655 364.361C176.247 356.785 191.011 349.713 210.965 349.445C234.576 348.991 263.569 360.172 302.108 384.466C314.12 392.069 331.052 418.472 354.521 454.838C411.685 543.677 507.408 692.796 655.023 746.856C720.166 770.682 763.036 764.133 808.398 757.238C837.809 752.757 868.383 748.103 906.815 751.573C938.591 754.41 975.243 767.552 1017.89 782.662L1021.39 783.977L1021.88 782.475L1018.38 781.16C975.734 765.883 938.916 752.909 906.973 750.073C868.375 746.604 837.801 751.258 808.224 755.74C763.028 762.633 720.491 769.18 655.68 745.353C508.565 691.457 413.01 542.671 355.845 453.665C332.374 416.966 315.276 390.564 302.93 382.796C264.058 358.337 234.899 347.157 210.955 347.612C190.669 347.882 175.076 355.458 159.981 362.698C127.138 378.692 93.2981 395.025 7.23085 344.65Z" fill="#76B420"/>
<path d="M7.08172 346.806L6.25803 348.31C95.9969 401.497 131 385.16 164.841 369.328C180.269 362.085 194.868 355.347 214.49 355.248C238.934 355.123 268.26 366.636 306.469 391.431C318.148 399.035 334.581 425.44 357.386 462.142C414.565 553.979 510.145 707.761 659.599 764.31C724.413 788.803 767.625 784.252 813.496 779.354C842.414 776.208 872.497 773.057 909.268 777.201C938.219 780.386 972.859 790.372 1021.51 809.283L1022.17 807.78C973.349 788.704 938.544 778.885 909.426 775.534C872.322 771.392 842.239 774.543 813.155 777.69C767.45 782.587 724.404 787.137 660.09 762.642C511.135 706.257 415.723 552.807 358.711 461.136C335.739 424.268 319.306 397.696 307.293 389.928C268.751 364.967 239.257 353.289 214.48 353.415C194.526 353.517 179.762 360.422 164.168 367.665C130.659 383.495 96.1529 399.498 7.08172 346.806Z" fill="#76B420"/>
<path d="M6.93391 348.797L6.11023 350.3C98.8539 405.971 134.357 389.964 168.865 374.462C201.382 359.803 232.24 345.985 310.667 398.563C321.846 406.003 337.781 432.577 360.088 469.447C417.114 564.116 512.55 722.561 663.679 781.766C727.997 806.928 771.717 804.374 818.097 801.639C871.959 798.533 927.648 795.251 1021.47 834.923L1022.13 833.42C927.806 793.584 871.95 796.867 817.923 799.974C771.875 802.707 728.154 805.261 664.171 780.265C513.542 721.39 418.273 563.11 361.247 468.609C338.94 431.572 322.839 404.998 311.325 397.227C232.064 344.153 200.874 358.139 167.859 372.967C134.182 388.299 98.8444 404.138 6.93391 348.797Z" fill="#76B420"/>
</svg>
