<svg width="1921" height="956" viewBox="0 0 1921 956" fill="none" xmlns="http://www.w3.org/2000/svg">
<path d="M1160.85 656.104L1437.23 721.771L1424.97 828.951L1160.85 656.104Z" stroke="black" stroke-miterlimit="10"/>
<path opacity="0.15" d="M740.506 804.617L503.212 779.387L44.0078 649.618L297.402 767.891L498.606 828.951L1106.15 849.26L740.506 804.617Z" fill="black"/>
<path d="M44.0078 649.618L676.822 637.54L825.209 714.659L1106.15 849.259L740.506 804.616L503.212 779.387L44.0078 649.618Z" fill="#30453A"/>
<path opacity="0.3" d="M1160.85 656.104L1424.97 828.951L1437.23 721.771L1160.85 656.104Z" fill="black"/>
<path opacity="0.15" d="M1160.85 656.104L1424.97 828.951L1347.78 820.72L1329.72 820.452L1288.3 817.454L1263.8 822.33L1202.62 822.554L1181.96 827.117L1169.08 839.418L1106.15 849.259L1160.85 656.104Z" fill="black"/>
<g opacity="0.15">
<path d="M1031.69 706.742L1160.84 656.104L825.207 714.659L958.21 778.403L1035.67 733.179L979.587 729.197L1059.95 714.078L1031.69 706.742Z" fill="white"/>
<path d="M1437.22 721.772L1518.48 721.637L1483.38 740.872L1547.73 735.684L1610.61 714.659L1750.63 628.459L1437.22 721.772Z" fill="white"/>
<path d="M1750.63 628.459L1811.9 612.4V632.53L1857.7 602.962L1853.49 659.146L1865.03 684.644L1919.99 477.219L1750.63 628.459Z" fill="white"/>
<path d="M44.0039 649.618L220.432 635.125L676.818 637.54L44.0039 649.618Z" fill="white"/>
</g>
<path d="M44.0063 649.618L360.414 936.265L0 902.849L44.0063 649.618Z" fill="#30453A"/>
<path d="M503.211 779.387L676.821 637.54L740.505 804.616L503.211 779.387Z" stroke="black" stroke-miterlimit="10"/>
<path d="M360.414 936.264L740.505 804.616L894.617 922.263L360.414 936.264Z" stroke="black" stroke-miterlimit="10"/>
<path d="M740.504 804.616L1106.15 849.26L894.615 922.263L740.504 804.616Z" stroke="black" stroke-miterlimit="10"/>
<path d="M1106.15 849.26L1444.6 953.934L894.613 922.263L1106.15 849.26Z" stroke="black" stroke-miterlimit="10"/>
<path d="M1106.15 849.26L1169.08 839.418L1168.9 867.332L1183.92 873.102L1106.15 849.26Z" stroke="black" stroke-miterlimit="10"/>
<path d="M825.207 714.659L1160.84 656.104L1106.15 849.259L825.207 714.659Z" stroke="black" stroke-miterlimit="10"/>
<path d="M1424.97 828.951L1682.84 772.901L1750.64 628.459L1424.97 828.951Z" stroke="black" stroke-miterlimit="10"/>
<path d="M1481.91 842.013L1615.18 922.263L1706.14 854.941L1481.91 842.013Z" stroke="black" stroke-miterlimit="10"/>
<path d="M1682.84 772.901L1706.14 854.941L1865.04 751.743L1682.84 772.901Z" stroke="black" stroke-miterlimit="10"/>
<path d="M1706.14 854.941L1903.9 858.296L1865.04 751.743L1706.14 854.941Z" stroke="black" stroke-miterlimit="10"/>
<path d="M1706.14 854.94L1844.06 922.263L1903.9 858.295L1706.14 854.94Z" stroke="black" stroke-miterlimit="10"/>
<path d="M1750.64 628.459L1865.04 751.742L1920 477.218L1750.64 628.459Z" stroke="black" stroke-miterlimit="10"/>
<path d="M1444.61 953.934L1476.27 873.549L1615.17 922.263L1444.61 953.934Z" stroke="black" stroke-miterlimit="10"/>
<path d="M1168.9 867.331L1288.48 837.942H1330.12L1444.61 953.934L1168.9 867.331Z" stroke="black" stroke-miterlimit="10"/>
<path d="M1169.08 839.418L1288.48 837.942L1168.9 867.331L1169.08 839.418Z" stroke="black" stroke-miterlimit="10"/>
<path d="M1330.12 837.942L1476.27 873.549L1481.9 842.013L1330.12 837.942Z" stroke="black" stroke-miterlimit="10"/>
<path d="M1424.97 828.951L1330.12 837.942L1481.9 842.013L1424.97 828.951Z" stroke="black" stroke-miterlimit="10"/>
<path d="M912.285 375.005L904.19 359.975L895.559 371.426L897.392 748.746C897.437 748.746 897.437 748.79 897.482 748.79C897.616 748.88 897.75 748.969 897.884 749.103C897.929 749.103 897.974 749.148 898.018 749.148C898.063 749.193 898.152 749.238 898.197 749.238C898.555 749.238 898.868 749.506 899.002 749.774C899.628 750.088 900.344 750.401 900.97 750.624C901.149 750.714 901.283 750.759 901.462 750.848C901.909 751.072 902.312 751.251 902.714 751.43C902.893 751.519 903.072 751.609 903.251 751.653C903.385 751.653 903.564 751.698 903.698 751.832C903.966 751.966 904.19 752.145 904.458 752.235C904.503 752.235 904.548 752.28 904.548 752.324C905.353 752.682 906.247 752.906 906.963 753.219C908.17 753.756 909.244 754.471 910.406 755.053C912.329 755.992 914.565 756.618 916.175 758.05C916.846 758.318 917.517 758.587 918.143 758.855C918.814 759.124 919.753 759.392 920.424 759.884L912.285 375.005Z" fill="url(#paint0_linear_224_399)"/>
<path d="M887.195 364.672L887.821 371.471L889.655 375.094L921.229 374.468L925.969 372.634V365.432L920.334 356.396L915.549 352.415L887.195 364.672Z" fill="url(#paint1_linear_224_399)"/>
<path opacity="0.1" d="M898.686 425.866L896.137 446.845L897.344 748.791C897.344 748.791 897.389 748.791 897.389 748.835C897.523 748.925 897.657 749.014 897.791 749.148C897.836 749.148 897.881 749.193 897.926 749.193C897.97 749.238 898.06 749.283 898.104 749.283C898.462 749.283 898.775 749.551 898.909 749.819C899.536 750.133 900.251 750.446 900.877 750.669C901.056 750.759 901.19 750.803 901.369 750.893C901.816 751.117 902.219 751.296 902.621 751.474C902.8 751.564 902.979 751.653 903.158 751.698C903.292 751.698 903.471 751.743 903.605 751.877C903.874 752.011 904.097 752.19 904.366 752.28C904.41 752.28 904.455 752.324 904.455 752.369C904.679 752.459 904.902 752.548 905.126 752.638L901.324 434.589L902.711 374.737L899.267 374.781L898.999 376.347L898.328 384.041L898.373 389.051L898.731 393.703L899.759 400.1L899.804 405.378L899.446 413.833L898.686 425.866Z" fill="white"/>
<path opacity="0.3" d="M922.523 359.885L903.65 367.937L902.264 369.19L901.414 369.816L900.475 370.353L899.625 372.545L915.412 371.292L922.88 366.014L925.966 365.432L922.523 359.885Z" fill="black"/>
<path d="M887.195 366.014C887.195 366.014 878.921 355.904 861.927 349.91C844.933 343.916 727.225 248.77 701.957 225.285H710.678C710.678 225.285 820.068 299.317 826.999 303.925C833.887 308.532 897.57 356.62 897.57 356.62L895.021 363.732L887.195 366.014Z" fill="url(#paint2_linear_224_399)"/>
<path opacity="0.1" d="M887.192 363.956L824.224 318.642L846.629 340.74L710.898 227.879L885.537 350.402L882.854 358.23L783.303 281.201L808.66 303.477L887.192 363.956Z" fill="white"/>
<path d="M900.926 369.368C900.926 369.368 896.32 381.58 899.629 399.294C902.938 417.008 879.37 566.549 871.723 600.188L867.34 592.629C867.34 592.629 876.731 460.846 877.268 452.571C877.805 444.295 887.599 365.074 887.599 365.074L895.023 363.732L900.926 369.368Z" fill="url(#paint3_linear_224_399)"/>
<path opacity="0.1" d="M899.137 370.397L891.355 447.606L899.316 417.187L869.441 591.153L888.225 378.628L896.364 377.062L879.414 501.777L886.033 468.675L899.137 370.397Z" fill="white"/>
<path d="M896.948 355.815C896.948 355.815 909.828 353.712 923.513 341.948C937.198 330.183 1078.43 275.833 1111.39 265.679L1107.01 273.239C1107.01 273.239 988.226 330.988 980.757 334.656C973.333 338.324 899.855 369.458 899.855 369.458L894.98 363.688L896.948 355.815Z" fill="url(#paint4_linear_224_399)"/>
<path opacity="0.1" d="M898.738 356.844L969.488 324.949L939.167 333.314L1104.73 272.209L911.35 362.167L905.894 355.949L1022.35 308.219L990.373 319.089L898.738 356.844Z" fill="white"/>
<path d="M895.514 371.471C900.824 371.471 905.129 367.906 905.129 363.509C905.129 359.111 900.824 355.546 895.514 355.546C890.203 355.546 885.898 359.111 885.898 363.509C885.898 367.906 890.203 371.471 895.514 371.471Z" fill="url(#paint5_radial_224_399)"/>
<path d="M895.514 371.471C900.824 371.471 905.129 367.906 905.129 363.509C905.129 359.111 900.824 355.546 895.514 355.546C890.203 355.546 885.898 359.111 885.898 363.509C885.898 367.906 890.203 371.471 895.514 371.471Z" stroke="black" stroke-miterlimit="10" stroke-linecap="round" stroke-linejoin="round"/>
<path d="M568.279 639.598L564.522 461.965L560.587 454.673L556.383 460.265L557.233 639.598H568.279Z" fill="url(#paint6_linear_224_399)"/>
<path d="M552.359 456.955L552.628 460.265L553.522 462.009L568.862 461.696L571.187 460.802V457.312L568.415 452.929L566.089 451.005L552.359 456.955Z" fill="url(#paint7_linear_224_399)"/>
<path opacity="0.1" d="M557.907 486.657L556.699 496.856L557.281 639.598H561.037L559.248 490.951L559.919 461.875L558.22 461.92L558.086 462.68L557.773 466.393V468.853L557.951 471.09L558.443 474.176L558.488 476.771L558.309 480.842L557.907 486.657Z" fill="white"/>
<path opacity="0.3" d="M569.489 454.628L560.321 458.52L559.651 459.146L559.248 459.459L558.756 459.728L558.398 460.801L566.046 460.175L569.668 457.625L571.189 457.312L569.489 454.628Z" fill="black"/>
<path d="M552.36 457.625C552.36 457.625 548.335 452.704 540.106 449.797C531.832 446.889 474.723 400.68 462.469 389.318H466.717C466.717 389.318 519.847 425.239 523.156 427.475C526.51 429.712 557.413 453.062 557.413 453.062L556.161 456.507L552.36 457.625Z" fill="url(#paint8_linear_224_399)"/>
<path opacity="0.1" d="M552.359 456.596L521.77 434.588L532.637 445.324L466.762 390.526L551.51 450.021L550.213 453.823L501.913 416.426L514.212 427.252L552.359 456.596Z" fill="white"/>
<path d="M559.025 459.236C559.025 459.236 556.789 465.185 558.399 473.774C560.009 482.363 548.56 554.964 544.848 571.291L542.746 567.623C542.746 567.623 547.308 503.655 547.576 499.629C547.844 495.603 552.585 457.178 552.585 457.178L556.207 456.507L559.025 459.236Z" fill="url(#paint9_linear_224_399)"/>
<path opacity="0.1" d="M558.131 459.728L554.374 497.214L558.22 482.452L543.73 566.907L552.854 463.754L556.789 462.949L548.56 523.516L551.78 507.457L558.131 459.728Z" fill="white"/>
<path d="M557.06 452.66C557.06 452.66 563.321 451.631 569.94 445.95C576.559 440.269 645.162 413.877 661.128 408.912L659.026 412.58C659.026 412.58 601.38 440.627 597.757 442.417C594.135 444.206 558.491 459.325 558.491 459.325L556.121 456.507L557.06 452.66Z" fill="url(#paint10_linear_224_399)"/>
<path opacity="0.1" d="M557.953 453.152L592.3 437.674L577.541 441.745L657.951 412.043L564.035 455.746L561.397 452.705L617.925 429.578L602.407 434.812L557.953 453.152Z" fill="white"/>
<path d="M556.387 460.22C558.981 460.22 561.083 458.498 561.083 456.373C561.083 454.248 558.981 452.526 556.387 452.526C553.794 452.526 551.691 454.248 551.691 456.373C551.691 458.498 553.794 460.22 556.387 460.22Z" fill="url(#paint11_radial_224_399)"/>
<path d="M556.387 460.22C558.981 460.22 561.083 458.498 561.083 456.373C561.083 454.248 558.981 452.526 556.387 452.526C553.794 452.526 551.691 454.248 551.691 456.373C551.691 458.498 553.794 460.22 556.387 460.22Z" stroke="black" stroke-width="0.25" stroke-miterlimit="10" stroke-linecap="round" stroke-linejoin="round"/>
<path opacity="0.15" d="M1865.04 751.743L1682.84 772.901L1424.97 828.951L1481.9 842.013L1706.14 854.941L1903.9 858.296L1865.04 751.743Z" fill="black"/>
<path d="M1460.57 218.191L1448.77 196.363L1436.23 213.02L1439.25 828.894H1473.59L1460.57 218.191Z" fill="url(#paint12_linear_224_399)"/>
<path d="M1424.06 202.925L1424.95 212.797L1427.62 218.084L1473.62 217.197L1480.54 214.498V204.034L1472.25 190.872L1465.33 185.067L1424.06 202.925Z" fill="url(#paint13_linear_224_399)"/>
<path opacity="0.1" d="M1444.71 305.042L1446.71 218.084L1441.68 218.158L1441.28 220.484L1440.28 231.636L1440.39 238.873L1440.94 245.593L1442.38 254.898L1442.5 262.579L1442.01 274.838L1440.79 292.266L1437.1 322.729L1439.17 828.894H1451L1444.71 305.042Z" fill="white"/>
<path opacity="0.3" d="M1475.49 195.494L1448.13 207.623L1446.14 209.504L1444.89 210.463L1443.52 211.269L1442.31 214.609L1465.18 212.766L1476.01 204.782L1480.54 203.861L1475.49 195.494Z" fill="black"/>
<path d="M1423.88 204.748C1423.88 204.748 1411.83 190.031 1387.1 181.341C1362.37 172.651 1191.09 34.1308 1154.3 0H1167.02C1167.02 0 1326.21 107.717 1336.27 114.41C1346.29 121.103 1438.97 191.066 1438.97 191.066L1435.23 201.383L1423.88 204.748Z" fill="url(#paint14_linear_224_399)"/>
<path opacity="0.1" d="M1423.88 201.716L1332.24 135.747L1364.77 167.918L1167.32 3.69775L1421.41 182.006L1417.52 193.359L1272.68 81.2778L1309.57 113.708L1423.88 201.716Z" fill="white"/>
<path d="M1443.81 209.592C1443.81 209.592 1437.08 227.378 1441.92 253.189C1446.77 279 1412.46 496.579 1401.33 545.501L1394.97 534.482C1394.97 534.482 1408.65 342.713 1409.43 330.658C1410.2 318.603 1424.44 203.343 1424.44 203.343L1435.23 201.383L1443.81 209.592Z" fill="url(#paint15_linear_224_399)"/>
<path opacity="0.1" d="M1441.22 211.071L1429.91 323.448L1441.48 279.148L1398 532.337L1425.36 223.089L1437.15 220.76L1412.53 402.248L1422.14 354.103L1441.22 211.071Z" fill="white"/>
<path d="M1438.17 189.562C1438.17 189.562 1456.93 186.508 1476.79 169.508C1496.66 152.508 1701.99 73.801 1749.89 59.0825L1743.54 70.0478C1743.54 70.0478 1570.85 153.686 1560.03 158.985C1549.21 164.283 1442.45 209.396 1442.45 209.396L1435.36 201.043L1438.17 189.562Z" fill="url(#paint16_linear_224_399)"/>
<path opacity="0.1" d="M1440.57 191.188L1543.54 144.726L1499.39 156.879L1740.33 67.771L1458.91 198.969L1451 189.892L1620.44 120.347L1573.93 136.13L1440.57 191.188Z" fill="white"/>
<path d="M1436.23 212.871C1443.9 212.871 1450.13 207.619 1450.13 201.141C1450.13 194.663 1443.9 189.412 1436.23 189.412C1428.55 189.412 1422.32 194.663 1422.32 201.141C1422.32 207.619 1428.55 212.871 1436.23 212.871Z" fill="url(#paint17_radial_224_399)"/>
<path d="M1437.23 721.772L1750.64 628.459L1424.97 828.951L1437.23 721.772Z" stroke="black" stroke-miterlimit="10"/>
<path d="M676.822 637.54L44.0078 649.618L503.212 779.387L676.822 637.54Z" stroke="black" stroke-miterlimit="10"/>
<defs>
<linearGradient id="paint0_linear_224_399" x1="895.517" y1="559.974" x2="921.235" y2="559.974" gradientUnits="userSpaceOnUse">
<stop stop-color="white"/>
<stop offset="1"/>
</linearGradient>
<linearGradient id="paint1_linear_224_399" x1="887.217" y1="363.737" x2="925.985" y2="363.737" gradientUnits="userSpaceOnUse">
<stop stop-color="white"/>
<stop offset="1"/>
</linearGradient>
<linearGradient id="paint2_linear_224_399" x1="785.465" y1="311.409" x2="831.354" y2="252.003" gradientUnits="userSpaceOnUse">
<stop stop-color="white"/>
<stop offset="1"/>
</linearGradient>
<linearGradient id="paint3_linear_224_399" x1="904.509" y1="484.809" x2="830.131" y2="474.785" gradientUnits="userSpaceOnUse">
<stop stop-color="white"/>
<stop offset="1"/>
</linearGradient>
<linearGradient id="paint4_linear_224_399" x1="995.124" y1="294.991" x2="1023.64" y2="364.438" gradientUnits="userSpaceOnUse">
<stop stop-color="white"/>
<stop offset="1"/>
</linearGradient>
<radialGradient id="paint5_radial_224_399" cx="0" cy="0" r="1" gradientUnits="userSpaceOnUse" gradientTransform="translate(886.943 357.51) scale(24.299 24.3049)">
<stop stop-color="white"/>
<stop offset="1"/>
</radialGradient>
<linearGradient id="paint6_linear_224_399" x1="556.374" y1="547.144" x2="568.858" y2="547.144" gradientUnits="userSpaceOnUse">
<stop stop-color="white"/>
<stop offset="1"/>
</linearGradient>
<linearGradient id="paint7_linear_224_399" x1="552.346" y1="456.503" x2="571.165" y2="456.503" gradientUnits="userSpaceOnUse">
<stop stop-color="white"/>
<stop offset="1"/>
</linearGradient>
<linearGradient id="paint8_linear_224_399" x1="502.954" y1="431.101" x2="525.23" y2="402.264" gradientUnits="userSpaceOnUse">
<stop stop-color="white"/>
<stop offset="1"/>
</linearGradient>
<linearGradient id="paint9_linear_224_399" x1="560.742" y1="515.274" x2="524.637" y2="510.408" gradientUnits="userSpaceOnUse">
<stop stop-color="white"/>
<stop offset="1"/>
</linearGradient>
<linearGradient id="paint10_linear_224_399" x1="604.73" y1="423.132" x2="618.574" y2="456.843" gradientUnits="userSpaceOnUse">
<stop stop-color="white"/>
<stop offset="1"/>
</linearGradient>
<radialGradient id="paint11_radial_224_399" cx="0" cy="0" r="1" gradientUnits="userSpaceOnUse" gradientTransform="translate(549.896 452.557) scale(14.7041 14.7075)">
<stop stop-color="white"/>
<stop offset="1"/>
</radialGradient>
<linearGradient id="paint12_linear_224_399" x1="1436.24" y1="512.628" x2="1473.57" y2="512.628" gradientUnits="userSpaceOnUse">
<stop stop-color="white"/>
<stop offset="1"/>
</linearGradient>
<linearGradient id="paint13_linear_224_399" x1="1424.05" y1="201.572" x2="1480.52" y2="201.572" gradientUnits="userSpaceOnUse">
<stop stop-color="white"/>
<stop offset="1"/>
</linearGradient>
<linearGradient id="paint14_linear_224_399" x1="1275.81" y1="125.253" x2="1342.58" y2="38.8087" gradientUnits="userSpaceOnUse">
<stop stop-color="white"/>
<stop offset="1"/>
</linearGradient>
<linearGradient id="paint15_linear_224_399" x1="1449.03" y1="377.577" x2="1340.8" y2="362.991" gradientUnits="userSpaceOnUse">
<stop stop-color="white"/>
<stop offset="1"/>
</linearGradient>
<linearGradient id="paint16_linear_224_399" x1="1580.85" y1="101.476" x2="1622.04" y2="202.147" gradientUnits="userSpaceOnUse">
<stop stop-color="white"/>
<stop offset="1"/>
</linearGradient>
<radialGradient id="paint17_radial_224_399" cx="0" cy="0" r="1" gradientUnits="userSpaceOnUse" gradientTransform="translate(1426.48 194.643) scale(32.613 33.3196)">
<stop stop-color="white"/>
<stop offset="1"/>
</radialGradient>
</defs>
</svg>
