<svg width="121" height="22" viewBox="0 0 121 22" fill="none" xmlns="http://www.w3.org/2000/svg">
<g clip-path="url(#clip0_88_829)">
<path d="M4.9666 21.2324C4.43585 21.5046 3.8336 21.0275 3.94085 20.4184L5.0821 13.9146L0.237977 9.30012C-0.214398 8.86837 0.0207266 8.07912 0.627102 7.99387L7.36185 7.03687L10.3649 1.08725C10.6357 0.550996 11.3686 0.550996 11.6395 1.08725L14.6425 7.03687L21.3772 7.99387C21.9836 8.07912 22.2187 8.86837 21.765 9.30012L16.9222 13.9146L18.0635 20.4184C18.1707 21.0275 17.5685 21.5046 17.0377 21.2324L11.0001 18.1304L4.9666 21.2324Z" fill="#76B420"/>
</g>
<g clip-path="url(#clip1_88_829)">
<path d="M29.7166 21.2324C29.1859 21.5046 28.5836 21.0275 28.6909 20.4184L29.8321 13.9146L24.988 9.30012C24.5356 8.86837 24.7707 8.07912 25.3771 7.99387L32.1119 7.03687L35.1149 1.08725C35.3857 0.550996 36.1186 0.550996 36.3895 1.08725L39.3925 7.03687L46.1272 7.99387C46.7336 8.07912 46.9687 8.86837 46.515 9.30012L41.6722 13.9146L42.8135 20.4184C42.9207 21.0275 42.3185 21.5046 41.7877 21.2324L35.7501 18.1304L29.7166 21.2324Z" fill="#76B420"/>
</g>
<g clip-path="url(#clip2_88_829)">
<path d="M54.4666 21.2324C53.9359 21.5046 53.3336 21.0275 53.4409 20.4184L54.5821 13.9146L49.738 9.30012C49.2856 8.86837 49.5207 8.07912 50.1271 7.99387L56.8619 7.03687L59.8649 1.08725C60.1357 0.550996 60.8686 0.550996 61.1395 1.08725L64.1425 7.03687L70.8772 7.99387C71.4836 8.07912 71.7187 8.86837 71.265 9.30012L66.4222 13.9146L67.5635 20.4184C67.6707 21.0275 67.0685 21.5046 66.5377 21.2324L60.5001 18.1304L54.4666 21.2324Z" fill="#76B420"/>
</g>
<g clip-path="url(#clip3_88_829)">
<path d="M79.2166 21.2324C78.6859 21.5046 78.0836 21.0275 78.1909 20.4184L79.3321 13.9146L74.488 9.30012C74.0356 8.86837 74.2707 8.07912 74.8771 7.99387L81.6119 7.03687L84.6149 1.08725C84.8857 0.550996 85.6186 0.550996 85.8895 1.08725L88.8925 7.03687L95.6272 7.99387C96.2336 8.07912 96.4687 8.86837 96.015 9.30012L91.1722 13.9146L92.3135 20.4184C92.4207 21.0275 91.8185 21.5046 91.2877 21.2324L85.2501 18.1304L79.2166 21.2324Z" fill="#76B420"/>
</g>
<g opacity="0.25" clip-path="url(#clip4_88_829)">
<path d="M103.967 21.2324C103.436 21.5046 102.834 21.0275 102.941 20.4184L104.082 13.9146L99.238 9.30012C98.7856 8.86837 99.0207 8.07912 99.6271 7.99387L106.362 7.03687L109.365 1.08725C109.636 0.550996 110.369 0.550996 110.639 1.08725L113.642 7.03687L120.377 7.99387C120.984 8.07912 121.219 8.86837 120.765 9.30012L115.922 13.9146L117.063 20.4184C117.171 21.0275 116.568 21.5046 116.038 21.2324L110 18.1304L103.967 21.2324Z" fill="#76B420"/>
</g>
<defs>
<clipPath id="clip0_88_829">
<rect width="22" height="22" fill="white" transform="translate(0 -0.00195312)"/>
</clipPath>
<clipPath id="clip1_88_829">
<rect width="22" height="22" fill="white" transform="translate(24.75 -0.00195312)"/>
</clipPath>
<clipPath id="clip2_88_829">
<rect width="22" height="22" fill="white" transform="translate(49.5 -0.00195312)"/>
</clipPath>
<clipPath id="clip3_88_829">
<rect width="22" height="22" fill="white" transform="translate(74.25 -0.00195312)"/>
</clipPath>
<clipPath id="clip4_88_829">
<rect width="22" height="22" fill="white" transform="translate(99 -0.00195312)"/>
</clipPath>
</defs>
</svg>
