<svg width="30" height="30" viewBox="0 0 30 30" fill="none" xmlns="http://www.w3.org/2000/svg">
<path d="M28.4646 11.8504L26.3589 11.4931C26.1395 10.785 25.8575 10.1019 25.5128 9.45011L26.7537 7.71416C27.2801 6.97465 27.1987 5.96567 26.5532 5.32644L24.6856 3.45888C24.3347 3.10793 23.8709 2.91365 23.3758 2.91365C22.9873 2.91365 22.6175 3.03273 22.3042 3.25834L20.5619 4.4992C19.8851 4.14198 19.1769 3.84743 18.4437 3.62809L18.0928 1.54745C17.9423 0.651277 17.1715 -0.000488281 16.2628 -0.000488281H13.6244C12.7157 -0.000488281 11.9449 0.651277 11.7944 1.54745L11.431 3.67823C10.7291 3.89757 10.046 4.18585 9.39419 4.5368L7.67078 3.29594C7.35743 3.07033 6.98141 2.95126 6.59286 2.95126C6.09776 2.95126 5.62774 3.14553 5.28306 3.49648L3.40923 5.36404C2.77 6.00327 2.68226 7.01225 3.20869 7.75176L4.46208 9.51278C4.1174 10.1708 3.84165 10.8539 3.62858 11.5621L1.54794 11.913C0.651765 12.0634 0 12.8343 0 13.743V16.3814C0 17.2901 0.651765 18.0609 1.54794 18.2113L3.67871 18.5748C3.89806 19.2767 4.18634 19.9598 4.53729 20.6116L3.30269 22.3287C2.77627 23.0682 2.85774 24.0772 3.50324 24.7165L5.3708 26.584C5.72175 26.935 6.1855 27.1292 6.68059 27.1292C7.06915 27.1292 7.4389 27.0102 7.75225 26.7846L9.51327 25.5312C10.1462 25.8633 10.8105 26.1328 11.4936 26.3459L11.8446 28.4516C11.995 29.3477 12.7658 29.9995 13.6745 29.9995H16.3192C17.2279 29.9995 17.9987 29.3477 18.1492 28.4516L18.5064 26.3459C19.2145 26.1265 19.8976 25.8445 20.5494 25.4998L22.2854 26.7407C22.5987 26.9663 22.9747 27.0854 23.3633 27.0854C23.8584 27.0854 24.3221 26.8911 24.6731 26.5401L26.5406 24.6726C27.1799 24.0334 27.2676 23.0244 26.7412 22.2849L25.5003 20.5426C25.845 19.8846 26.1333 19.2015 26.3464 18.4996L28.4521 18.1487C29.3482 17.9983 30 17.2274 30 16.3187V13.6803C30.0125 12.7716 29.3608 12.0008 28.4646 11.8504ZM28.3205 16.3187C28.3205 16.4002 28.264 16.4691 28.1826 16.4817L25.5505 16.9203C25.2183 16.9767 24.9551 17.2212 24.8736 17.5408C24.6355 18.462 24.272 19.3457 23.7832 20.1666C23.614 20.4549 23.6265 20.8121 23.8208 21.0879L25.3687 23.2688C25.4126 23.3315 25.4063 23.4255 25.3499 23.4819L23.4823 25.3494C23.4385 25.3933 23.3946 25.3996 23.3633 25.3996C23.3257 25.3996 23.2943 25.387 23.2693 25.3682L21.0946 23.8203C20.8252 23.626 20.4617 23.6135 20.1734 23.7827C19.3524 24.2715 18.4688 24.635 17.5475 24.8731C17.2216 24.9546 16.9772 25.2241 16.9271 25.55L16.4821 28.1821C16.4696 28.2636 16.4007 28.32 16.3192 28.32H13.6808C13.5993 28.32 13.5304 28.2636 13.5179 28.1821L13.0792 25.55C13.0228 25.2178 12.7784 24.9546 12.4587 24.8731C11.5626 24.6413 10.6977 24.284 9.88928 23.8203C9.75768 23.7451 9.60727 23.7075 9.46313 23.7075C9.29392 23.7075 9.11845 23.7576 8.97431 23.8641L6.78086 25.4246C6.74953 25.4434 6.71819 25.456 6.68686 25.456C6.66179 25.456 6.61166 25.4497 6.56779 25.4058L4.70023 23.5383C4.64383 23.4819 4.63756 23.3941 4.68143 23.3252L6.2231 21.1631C6.41738 20.8873 6.42991 20.5238 6.26071 20.2356C5.77188 19.4209 5.39586 18.5372 5.15772 17.616C5.06998 17.2964 4.80677 17.0519 4.48089 16.9955L1.82996 16.5443C1.74849 16.5318 1.69208 16.4629 1.69208 16.3814V13.743C1.69208 13.6615 1.74849 13.5926 1.82996 13.58L4.44328 13.1414C4.77543 13.085 5.04491 12.8405 5.12638 12.5147C5.35826 11.5934 5.71548 10.7035 6.19804 9.88253C6.36724 9.59425 6.34844 9.23703 6.15417 8.96755L4.59369 6.77411C4.54982 6.71144 4.55609 6.61743 4.61249 6.56103L6.48005 4.69347C6.52392 4.64961 6.56779 4.64334 6.59912 4.64334C6.63672 4.64334 6.66806 4.65587 6.69313 4.67467L8.85523 6.21635C9.13098 6.41062 9.49446 6.42316 9.78275 6.25395C10.5975 5.76513 11.4811 5.38911 12.4023 5.15096C12.722 5.06323 12.9664 4.80001 13.0228 4.47413L13.474 1.8232C13.4865 1.74173 13.5555 1.68533 13.6369 1.68533H16.2753C16.3568 1.68533 16.4257 1.74173 16.4383 1.8232L16.877 4.43653C16.9334 4.76868 17.1778 5.03816 17.5037 5.11963C18.45 5.35777 19.3524 5.72753 20.1922 6.22262C20.4805 6.39182 20.8377 6.37929 21.1134 6.18501L23.2755 4.63081C23.3069 4.612 23.3382 4.59947 23.3695 4.59947C23.3946 4.59947 23.4447 4.60574 23.4886 4.64961L25.3562 6.51716C25.4126 6.57357 25.4188 6.6613 25.375 6.73024L23.827 8.90488C23.6328 9.17436 23.6202 9.53784 23.7894 9.82613C24.2783 10.6471 24.6417 11.5307 24.8799 12.452C24.9614 12.7779 25.2308 13.0223 25.5567 13.0724L28.1888 13.5174C28.2703 13.5299 28.3267 13.5988 28.3267 13.6803V16.3187H28.3205Z" fill="white"/>
<path d="M15.0031 8.52271C11.4309 8.52271 8.5293 11.4243 8.5293 14.9965C8.5293 18.5687 11.4309 21.4703 15.0031 21.4703C18.5753 21.4703 21.4769 18.5687 21.4769 14.9965C21.4769 11.4243 18.5753 8.52271 15.0031 8.52271ZM15.0031 19.7782C12.3647 19.7782 10.2214 17.6349 10.2214 14.9965C10.2214 12.3581 12.3647 10.2148 15.0031 10.2148C17.6415 10.2148 19.7848 12.3581 19.7848 14.9965C19.7848 17.6349 17.6415 19.7782 15.0031 19.7782Z" fill="white"/>
</svg>
