<svg width="28" height="30" viewBox="0 0 28 30" fill="none" xmlns="http://www.w3.org/2000/svg">
<path fill-rule="evenodd" clip-rule="evenodd" d="M11.7451 12.1364C11.5615 12.1364 11.3877 12.027 11.3115 11.8473L10.3076 9.42542C10.2686 9.33362 10.2608 9.23206 10.2862 9.1344L12.1397 1.55627C12.378 0.581665 12.9971 -0.000366211 13.794 -0.000366211C14.7139 -0.000366211 15.4619 0.747681 15.4619 1.6676V11.3121C15.4619 11.5719 15.253 11.7809 14.9932 11.7809C14.7334 11.7809 14.5244 11.5719 14.5244 11.3121V1.6676C14.5244 1.26526 14.1963 0.937134 13.794 0.937134C13.3252 0.937134 13.126 1.46448 13.0498 1.77893L11.2334 9.20862L12.1787 11.4879C12.2783 11.7262 12.1651 12.0016 11.9248 12.1012C11.8662 12.1246 11.8057 12.1364 11.7451 12.1364Z" fill="white"/>
<path fill-rule="evenodd" clip-rule="evenodd" d="M13.8359 19.2556C11.9004 19.2556 10.3242 17.6794 10.3242 15.7439C10.3242 13.8084 11.9004 12.2322 13.8359 12.2322C15.7715 12.2322 17.3477 13.8084 17.3477 15.7439C17.3476 17.6813 15.7714 19.2556 13.8359 19.2556ZM13.8359 13.1697C12.416 13.1697 11.2617 14.324 11.2617 15.7439C11.2617 17.1638 12.416 18.3181 13.8359 18.3181C15.2559 18.3181 16.4102 17.1638 16.4102 15.7439C16.4101 14.324 15.2539 13.1697 13.8359 13.1697Z" fill="white"/>
<path fill-rule="evenodd" clip-rule="evenodd" d="M26.0412 24.4158C25.7521 24.4158 25.4689 24.3396 25.213 24.1931L16.8595 19.3709C16.6349 19.242 16.5587 18.9548 16.6877 18.7302C16.8166 18.5056 17.1037 18.4295 17.3283 18.5584L25.6818 23.3806C25.8498 23.4783 26.047 23.5037 26.2365 23.4529C26.4259 23.4021 26.5841 23.281 26.6798 23.113C26.9142 22.7068 26.5568 22.2713 26.3224 22.0466L20.797 16.7576L18.3498 16.4353C18.0939 16.4021 17.9123 16.1658 17.9455 15.9099C17.9787 15.6541 18.215 15.4724 18.4709 15.5056L21.0705 15.8474C21.1701 15.8611 21.2619 15.9041 21.3341 15.9744L26.9709 21.3689C27.6955 22.0623 27.8908 22.8904 27.4923 23.5798C27.2697 23.9646 26.9103 24.24 26.4787 24.3552C26.3322 24.3962 26.1857 24.4158 26.0412 24.4158Z" fill="white"/>
<path fill-rule="evenodd" clip-rule="evenodd" d="M1.64645 24.4196C1.0195 24.4196 0.509735 24.154 0.220673 23.6501C-0.238312 22.8532 0.0351258 21.8317 0.832001 21.3708L9.18552 16.5485C9.41013 16.4196 9.69723 16.4958 9.82614 16.7204C9.95505 16.945 9.87887 17.2321 9.65427 17.361L1.30075 22.1833C0.951141 22.3844 0.832001 22.8317 1.03317 23.1813C1.26755 23.5876 1.82419 23.4958 2.13474 23.404L9.47653 21.2633L10.9785 19.3044C11.1367 19.0993 11.4297 19.0602 11.6347 19.2184C11.8398 19.3766 11.8789 19.6696 11.7207 19.8747L10.125 21.9547C10.0644 22.0348 9.98044 22.0915 9.88473 22.1188L2.3945 24.3024C2.13278 24.3824 1.88083 24.4196 1.64645 24.4196Z" fill="white"/>
<path fill-rule="evenodd" clip-rule="evenodd" d="M13.8359 20.7925C12.4883 20.7925 11.2188 20.2671 10.2656 19.314C9.3125 18.3608 8.78711 17.0933 8.78711 15.7437C8.78711 14.394 9.3125 13.1265 10.2656 12.1733C11.2188 11.2202 12.4863 10.6948 13.8359 10.6948C15.1836 10.6948 16.4531 11.2202 17.4062 12.1733C18.3594 13.1265 18.8848 14.394 18.8848 15.7437C18.8848 17.0933 18.3594 18.3608 17.4062 19.314C16.4511 20.2672 15.1836 20.7925 13.8359 20.7925ZM13.8359 11.6324C12.7383 11.6324 11.7051 12.0601 10.9297 12.8355C10.1523 13.6129 9.72656 14.6441 9.72656 15.7418C9.72656 18.0094 11.5703 19.8531 13.8379 19.8531C16.1055 19.8531 17.9492 18.0094 17.9492 15.7418C17.9491 13.4742 16.1016 11.6324 13.8359 11.6324Z" fill="white"/>
<path fill-rule="evenodd" clip-rule="evenodd" d="M23.006 13.7555C22.799 13.7555 22.6095 13.6169 22.5529 13.4079C21.9279 11.0797 20.4357 9.13248 18.3478 7.9274C18.1232 7.79849 18.047 7.51138 18.1759 7.28678C18.3048 7.06217 18.592 6.98599 18.8166 7.1149C19.9552 7.7731 20.9396 8.63443 21.7404 9.6774C22.5412 10.7204 23.1193 11.8942 23.4591 13.1637C23.5255 13.4137 23.3771 13.6715 23.1271 13.7379C23.088 13.7497 23.047 13.7555 23.006 13.7555Z" fill="white"/>
<path fill-rule="evenodd" clip-rule="evenodd" d="M4.33984 16.2126C4.08008 16.2126 3.87109 16.0037 3.87109 15.7439C3.87109 14.4294 4.12695 13.1462 4.62891 11.9314C5.13086 10.7166 5.85938 9.62866 6.78906 8.69897C6.97266 8.51538 7.26953 8.51538 7.45117 8.69897C7.63477 8.88257 7.63477 9.17944 7.45117 9.36108C5.74609 11.0662 4.80664 13.3318 4.80664 15.7439C4.80859 16.0037 4.59961 16.2126 4.33984 16.2126Z" fill="white"/>
<path fill-rule="evenodd" clip-rule="evenodd" d="M15.5215 29.9996H12.1504C11.8906 29.9996 11.6816 29.7906 11.6816 29.5309V20.0035C11.6816 19.7438 11.8906 19.5348 12.1504 19.5348C12.4102 19.5348 12.6191 19.7438 12.6191 20.0035V29.0621H15.0527V20.0035C15.0527 19.7438 15.2617 19.5348 15.5215 19.5348C15.7812 19.5348 15.9902 19.7438 15.9902 20.0035V29.5309C15.9902 29.7906 15.7793 29.9996 15.5215 29.9996Z" fill="white"/>
</svg>
