<svg width="20" height="30" viewBox="0 0 20 30" fill="none" xmlns="http://www.w3.org/2000/svg">
<path d="M9.99875 -0.000488281H9.99806C8.24578 -0.000107896 6.52433 0.460609 5.00611 1.33553C3.48788 2.21046 2.22614 3.46888 1.34723 4.98481C0.468314 6.50073 0.00307393 8.22095 -0.00191261 9.97324C-0.00689916 11.7255 0.448544 13.4484 1.31881 14.9693C2.16018 16.4327 3.35612 17.661 4.79656 18.5411C5.0119 18.6755 5.18936 18.8627 5.31212 19.0849C5.43488 19.3071 5.49889 19.5569 5.49806 19.8108V20.0858C5.26577 20.1677 5.05727 20.3057 4.89102 20.4875C4.72477 20.6693 4.60589 20.8892 4.5449 21.1279C4.48391 21.3665 4.48269 21.6166 4.54136 21.8558C4.60003 22.095 4.71677 22.3161 4.88125 22.4995C4.63454 22.7742 4.49806 23.1303 4.49806 23.4995C4.49806 23.8687 4.63454 24.2249 4.88125 24.4995C4.71671 24.6829 4.59993 24.904 4.54123 25.1433C4.48253 25.3825 4.48373 25.6326 4.54472 25.8713C4.60571 26.11 4.72461 26.33 4.8909 26.5118C5.05719 26.6936 5.26573 26.8315 5.49806 26.9135V27.4995C5.49881 28.1623 5.76244 28.7978 6.23112 29.2665C6.6998 29.7351 7.33525 29.9988 7.99806 29.9995H11.9981C12.6609 29.9988 13.2963 29.7351 13.765 29.2665C14.2337 28.7978 14.4973 28.1623 14.4981 27.4995V26.9135C14.7304 26.8315 14.9389 26.6936 15.1052 26.5118C15.2715 26.33 15.3904 26.11 15.4514 25.8713C15.5124 25.6326 15.5136 25.3825 15.4549 25.1433C15.3962 24.904 15.2794 24.6829 15.1149 24.4995C15.3616 24.2249 15.4981 23.8687 15.4981 23.4995C15.4981 23.1303 15.3616 22.7742 15.1149 22.4995C15.2794 22.3161 15.3962 22.095 15.4549 21.8558C15.5136 21.6165 15.5124 21.3664 15.4514 21.1277C15.3904 20.889 15.2715 20.669 15.1052 20.4873C14.9389 20.3055 14.7304 20.1675 14.4981 20.0855V19.8105C14.4979 19.5525 14.5643 19.2989 14.691 19.0741C14.8177 18.8494 15.0003 18.6612 15.2211 18.5278C16.681 17.6344 17.887 16.3809 18.7235 14.8876C19.56 13.3943 19.9988 11.7111 19.9981 9.99951C19.9981 4.48589 15.5124 -0.000113281 9.99875 -0.000488281ZM5.99806 20.9995H13.9981C14.1307 20.9995 14.2578 21.0522 14.3516 21.146C14.4454 21.2397 14.4981 21.3669 14.4981 21.4995C14.4981 21.6321 14.4454 21.7593 14.3516 21.8531C14.2578 21.9468 14.1307 21.9995 13.9981 21.9995H5.99806C5.86545 21.9995 5.73828 21.9468 5.64451 21.8531C5.55074 21.7593 5.49806 21.6321 5.49806 21.4995C5.49806 21.3669 5.55074 21.2397 5.64451 21.146C5.73828 21.0522 5.86545 20.9995 5.99806 20.9995ZM8.49806 14.9995H7.99806C7.89917 14.9995 7.8025 14.9702 7.72028 14.9152C7.63805 14.8603 7.57397 14.7822 7.53612 14.6909C7.49828 14.5995 7.48838 14.499 7.50767 14.402C7.52696 14.305 7.57458 14.2159 7.64451 14.146C7.71444 14.076 7.80353 14.0284 7.90052 14.0091C7.99751 13.9898 8.09804 13.9997 8.1894 14.0376C8.28077 14.0754 8.35886 14.1395 8.4138 14.2217C8.46874 14.304 8.49806 14.4006 8.49806 14.4995V14.9995ZM9.49806 15.9995H10.4981V19.9995H9.49806V15.9995ZM14.4981 23.4995C14.4979 23.6321 14.4452 23.7592 14.3515 23.8529C14.2577 23.9466 14.1306 23.9994 13.9981 23.9995H5.99806C5.86545 23.9995 5.73828 23.9468 5.64451 23.8531C5.55074 23.7593 5.49806 23.6321 5.49806 23.4995C5.49806 23.3669 5.55074 23.2397 5.64451 23.146C5.73828 23.0522 5.86545 22.9995 5.99806 22.9995H13.9981C14.1306 22.9997 14.2577 23.0524 14.3515 23.1461C14.4452 23.2399 14.4979 23.3669 14.4981 23.4995ZM11.9981 28.9995H7.99806C7.60038 28.9991 7.2191 28.8409 6.9379 28.5597C6.65669 28.2785 6.49851 27.8972 6.49806 27.4995V26.9995H13.4981V27.4995C13.4976 27.8972 13.3394 28.2785 13.0582 28.5597C12.777 28.8409 12.3958 28.9991 11.9981 28.9995ZM13.9981 25.9995H5.99806C5.86545 25.9995 5.73828 25.9468 5.64451 25.8531C5.55074 25.7593 5.49806 25.6321 5.49806 25.4995C5.49806 25.3669 5.55074 25.2397 5.64451 25.146C5.73828 25.0522 5.86545 24.9995 5.99806 24.9995H13.9981C14.1307 24.9995 14.2578 25.0522 14.3516 25.146C14.4454 25.2397 14.4981 25.3669 14.4981 25.4995C14.4981 25.6321 14.4454 25.7593 14.3516 25.8531C14.2578 25.9468 14.1307 25.9995 13.9981 25.9995ZM14.6981 17.6756C14.3311 17.8979 14.0278 18.2113 13.8175 18.5854C13.6073 18.9594 13.4972 19.3815 13.4981 19.8106V19.9995H11.4981V15.9995H11.9981C12.2947 15.9995 12.5847 15.9115 12.8314 15.7467C13.0781 15.5819 13.2704 15.3476 13.3839 15.0735C13.4974 14.7994 13.5271 14.4978 13.4692 14.2069C13.4114 13.9159 13.2685 13.6486 13.0587 13.4389C12.8489 13.2291 12.5817 13.0862 12.2907 13.0283C11.9997 12.9705 11.6981 13.0002 11.424 13.1137C11.15 13.2272 10.9157 13.4195 10.7509 13.6662C10.586 13.9128 10.4981 14.2028 10.4981 14.4995V14.9995H9.49806V14.4995C9.49806 14.2028 9.41009 13.9128 9.24527 13.6662C9.08045 13.4195 8.84618 13.2272 8.57209 13.1137C8.298 13.0002 7.9964 12.9705 7.70543 13.0283C7.41446 13.0862 7.14718 13.2291 6.9374 13.4389C6.72762 13.6486 6.58476 13.9159 6.52689 14.2069C6.46901 14.4978 6.49871 14.7994 6.61224 15.0735C6.72578 15.3476 6.91803 15.5819 7.16471 15.7467C7.41138 15.9115 7.70139 15.9995 7.99806 15.9995H8.49806V19.9995H6.49806V19.8108C6.49832 19.3856 6.39001 18.9674 6.18338 18.5958C5.97676 18.2242 5.67867 17.9116 5.31738 17.6874C3.6393 16.6671 2.34109 15.1258 1.62081 13.2987C0.900535 11.4717 0.797747 9.4591 1.32813 7.56814C1.85851 5.67718 2.99294 4.01164 4.55834 2.82565C6.12373 1.63966 8.03413 0.998327 9.99806 0.999512H9.99875C14.9609 0.999887 18.9981 5.03701 18.9981 9.99951C19.0033 11.541 18.6102 13.0577 17.8568 14.4026C17.1034 15.7475 16.0153 16.8749 14.6981 17.6756ZM11.4981 14.9995V14.4995C11.4981 14.4006 11.5274 14.304 11.5823 14.2217C11.6373 14.1395 11.7154 14.0754 11.8067 14.0376C11.8981 13.9997 11.9986 13.9898 12.0956 14.0091C12.1926 14.0284 12.2817 14.076 12.3516 14.146C12.4215 14.2159 12.4692 14.305 12.4885 14.402C12.5077 14.499 12.4978 14.5995 12.46 14.6909C12.4222 14.7822 12.3581 14.8603 12.2758 14.9152C12.1936 14.9702 12.097 14.9995 11.9981 14.9995H11.4981Z" fill="white"/>
<path d="M9.99805 1.99951H9.49805C9.36544 1.99951 9.23826 2.05219 9.14449 2.14596C9.05072 2.23973 8.99805 2.3669 8.99805 2.49951C8.99805 2.63212 9.05072 2.7593 9.14449 2.85307C9.23826 2.94683 9.36544 2.99951 9.49805 2.99951H9.99805C11.8539 3.00161 13.6332 3.73978 14.9455 5.05208C16.2578 6.36438 16.9959 8.14364 16.998 9.99951V10.4995C16.998 10.6321 17.0507 10.7593 17.1445 10.8531C17.2383 10.9468 17.3654 10.9995 17.498 10.9995C17.6307 10.9995 17.7578 10.9468 17.8516 10.8531C17.9454 10.7593 17.998 10.6321 17.998 10.4995V9.99951C17.9956 7.87852 17.152 5.84508 15.6523 4.34531C14.1525 2.84554 12.119 2.00191 9.99805 1.99951Z" fill="white"/>
</svg>
