<svg width="30" height="30" viewBox="0 0 30 30" fill="none" xmlns="http://www.w3.org/2000/svg">
<path d="M23.4961 2.49951C21.287 2.49951 19.4961 4.29039 19.4961 6.49951C19.4986 8.70764 21.288 10.497 23.4961 10.4995C25.7052 10.4995 27.4961 8.70864 27.4961 6.49951C27.4961 4.29039 25.7052 2.49951 23.4961 2.49951ZM23.4961 9.49951C21.8392 9.49951 20.4961 8.15639 20.4961 6.49951C20.4977 4.84332 21.8399 3.50114 23.4961 3.49951C25.153 3.49951 26.4961 4.84264 26.4961 6.49951C26.4961 8.15639 25.153 9.49951 23.4961 9.49951Z" fill="white"/>
<path d="M23.9961 -0.000488281H22.9961V1.49951H23.9961V-0.000488281Z" fill="white"/>
<path d="M23.9961 11.4995H22.9961V12.9995H23.9961V11.4995Z" fill="white"/>
<path d="M18.4961 5.99951H16.9961V6.99951H18.4961V5.99951Z" fill="white"/>
<path d="M29.9961 5.99951H28.4961V6.99951H29.9961V5.99951Z" fill="white"/>
<path d="M19.252 1.54974L18.5449 2.25684L19.6056 3.31749L20.3127 2.61039L19.252 1.54974Z" fill="white"/>
<path d="M27.3848 9.6806L26.6777 10.3877L27.7384 11.4483L28.4455 10.7412L27.3848 9.6806Z" fill="white"/>
<path d="M19.6075 9.68007L18.5469 10.7407L19.254 11.4478L20.3146 10.3872L19.6075 9.68007Z" fill="white"/>
<path d="M27.7384 1.5497L26.6777 2.61035L27.3848 3.31745L28.4455 2.2568L27.7384 1.5497Z" fill="white"/>
<path d="M26.9345 29.26L14.9345 7.26001C14.8469 7.09939 14.6785 6.99945 14.4955 6.99951H0.495547C0.457985 7.00032 0.42061 7.00514 0.384047 7.01401C0.380047 7.01401 0.376047 7.01401 0.372047 7.01401C0.323297 7.02707 0.276922 7.04764 0.234547 7.07501C0.222047 7.08326 0.209984 7.09232 0.198547 7.10201C0.157297 7.13332 0.12086 7.17051 0.090547 7.21251C0.083547 7.22301 0.074047 7.23151 0.067547 7.24251C0.056922 7.26276 0.0478595 7.28382 0.040547 7.30551C0.0339845 7.31851 0.028172 7.33189 0.023047 7.34551C0.00710951 7.39395 -0.00132798 7.44451 -0.00195298 7.49551V10.9995C-0.00201548 11.0826 0.0186095 11.1644 0.058047 11.2375L10.0555 29.7375C10.143 29.899 10.3119 29.9996 10.4955 29.9995H26.4955C26.7717 29.9996 26.9956 29.7758 26.9956 29.4996C26.9957 29.4159 26.9747 29.3335 26.9345 29.26ZM22.653 23.4995H19.2925L16.838 18.9995H20.1985L22.653 23.4995ZM10.653 17.9995H6.79255L4.33805 13.4995H8.19855L10.653 17.9995ZM9.33805 13.4995H12.6985L15.153 17.9995H11.7925L9.33805 13.4995ZM11.1985 18.9995L13.653 23.4995H9.79255L7.33805 18.9995H11.1985ZM12.338 18.9995H15.6985L18.153 23.4995H14.7925L12.338 18.9995ZM19.653 17.9995H16.2925L13.838 13.4995H17.1985L19.653 17.9995ZM14.1985 7.99951L16.653 12.4995H13.2925L10.838 7.99951H14.1985ZM9.69855 7.99951L12.153 12.4995H8.79255L6.33805 7.99951H9.69855ZM5.19855 7.99951L7.65305 12.4995H3.79255L1.33805 7.99951H5.19855ZM10.7955 28.9995L0.995547 10.873V9.46051L11.653 28.9995H10.7955ZM12.7925 28.9995L10.338 24.4995H14.1985L16.653 28.9995H12.7925ZM17.7925 28.9995L15.338 24.4995H18.6985L21.153 28.9995H17.7925ZM22.2925 28.9995L19.838 24.4995H23.1985L25.653 28.9995H22.2925Z" fill="white"/>
</svg>
