<svg width="38" height="35" viewBox="0 0 38 35" fill="none" xmlns="http://www.w3.org/2000/svg">
<path fill-rule="evenodd" clip-rule="evenodd" d="M2.06613 22.4858C2.00224 22.4551 1.9409 22.4143 1.88212 22.376C1.79779 22.2994 1.693 22.3479 1.67767 22.4577C1.62144 22.8457 1.555 23.2338 1.4911 23.6218C1.47066 23.7367 1.45277 23.8516 1.43999 23.969L1.38888 24.3979L1.61122 24.0277C1.64444 23.9716 1.67767 23.9128 1.70834 23.8541C1.85657 23.5835 1.99713 23.3078 2.13513 23.0321C2.16069 23.05 2.1888 23.0755 2.21436 23.0934C2.26547 23.1317 2.33959 23.1827 2.40604 23.1699C2.46993 23.1572 2.49548 23.0934 2.51082 23.0398L2.51337 23.0321V23.0244C2.51849 22.9912 2.5236 22.9606 2.52871 22.9274C2.53893 22.861 2.54915 22.7972 2.55938 22.7309C2.59004 22.5496 2.62071 22.3658 2.64883 22.1845C2.67438 22.0339 2.69738 21.8833 2.72038 21.7352C2.73061 21.6765 2.73827 21.6178 2.74594 21.5616L2.83028 21L2.57216 21.5055C2.53893 21.5693 2.50826 21.6306 2.47504 21.6944C2.3447 21.9573 2.20669 22.2203 2.06613 22.4858ZM4.09789 22.3071L3.32097 23.9052C3.0654 24.4311 2.42648 24.6532 1.89746 24.4004C1.48344 25.2505 1.21254 25.8045 1.79779 26.7363C3.5612 29.547 11.8953 27.5073 20.4108 22.1769C28.9263 16.8439 34.4006 10.2447 32.6371 7.43143C31.436 5.51933 27.1935 5.85375 21.9212 7.94201L21.8062 7.81692C29.1563 4.47775 35.341 3.65828 36.9435 6.18563C39.034 9.4814 32.5477 17.2192 22.4528 23.4661C12.3604 29.7155 2.48271 32.1101 0.392163 28.8144C-0.223756 27.8443 -0.0959717 26.4912 0.64773 24.9008L1.00297 23.9664C0.4765 23.7112 0.254156 23.0678 0.509724 22.5419L1.28665 20.9438L1.05919 20.8341L1.42977 20.0708L1.92301 20.3107L2.75616 18.5977C2.80217 18.5058 2.91462 18.465 3.00662 18.5109L3.15229 18.5824C3.24685 18.6284 3.28519 18.7407 3.23919 18.8352L2.40604 20.5456L3.6941 21.171L4.52725 19.4606C4.57069 19.3662 4.6857 19.3279 4.7777 19.3738L4.92338 19.4453C5.01794 19.4912 5.05627 19.6036 5.01027 19.698L4.17712 21.4085L4.70615 21.6663L4.33557 22.4296L4.09789 22.3071Z" fill="#0C2518"/>
<path fill-rule="evenodd" clip-rule="evenodd" d="M20.7815 25.1561C21.3642 29.6798 21.3796 33.767 20.1375 35C16.0254 33.5091 13.5234 31.5306 12.0641 29.2381C13.1554 28.8476 14.2313 28.411 15.2817 27.9464C17.1601 27.1167 18.9977 26.1772 20.7815 25.1561ZM27.0838 21.0562C27.0659 24.4974 25.8085 28.1736 22.8107 32.0004C22.844 29.1871 22.7315 26.5755 22.4427 24.1681C22.5501 24.1018 22.6574 24.0379 22.7622 23.9716C24.2394 23.0602 25.6859 22.0875 27.0838 21.0562ZM10.4157 0C13.6026 1.75383 16.8892 3.9876 19.6877 6.61451C20.5413 7.40591 21.3489 8.24836 22.1079 9.13166L22.1156 9.14187L22.1411 9.16995L22.1846 9.22101C22.3328 9.39716 22.4811 9.5733 22.6267 9.75201L22.6651 9.79796C24.4285 11.9883 25.7958 14.3804 26.5165 16.9384C25.0367 18.2403 23.4369 19.4478 21.8421 20.5303C20.986 16.632 19.5241 13.3848 17.2726 10.7987C18.1875 12.6061 19.4015 17.0022 20.2295 21.5846L20.0966 21.6689C17.2879 23.4252 14.0167 25.1357 10.7556 26.2462C8.49128 18.0182 14.8881 7.22976 10.4157 0Z" fill="#76B420"/>
</svg>
