<svg width="155" height="45" viewBox="0 0 155 45" fill="none" xmlns="http://www.w3.org/2000/svg">
<path fill-rule="evenodd" clip-rule="evenodd" d="M2.06613 27.4858C2.00224 27.4551 1.9409 27.4143 1.88212 27.376C1.79779 27.2994 1.693 27.3479 1.67767 27.4577C1.62144 27.8457 1.555 28.2338 1.4911 28.6218C1.47066 28.7367 1.45277 28.8516 1.43999 28.969L1.38888 29.3979L1.61122 29.0277C1.64444 28.9716 1.67767 28.9128 1.70834 28.8541C1.85657 28.5835 1.99713 28.3078 2.13513 28.0321C2.16069 28.05 2.1888 28.0755 2.21436 28.0934C2.26547 28.1317 2.33959 28.1827 2.40604 28.1699C2.46993 28.1572 2.49548 28.0934 2.51082 28.0398L2.51337 28.0321V28.0244C2.51849 27.9912 2.5236 27.9606 2.52871 27.9274C2.53893 27.861 2.54915 27.7972 2.55938 27.7309C2.59004 27.5496 2.62071 27.3658 2.64883 27.1845C2.67438 27.0339 2.69738 26.8833 2.72038 26.7352C2.73061 26.6765 2.73827 26.6178 2.74594 26.5616L2.83028 26L2.57216 26.5055C2.53893 26.5693 2.50826 26.6306 2.47504 26.6944C2.3447 26.9573 2.20669 27.2203 2.06613 27.4858ZM4.09789 27.3071L3.32097 28.9052C3.0654 29.4311 2.42648 29.6532 1.89746 29.4004C1.48344 30.2505 1.21254 30.8045 1.79779 31.7363C3.5612 34.547 11.8953 32.5073 20.4108 27.1769C28.9263 21.8439 34.4006 15.2447 32.6371 12.4314C31.436 10.5193 27.1935 10.8538 21.9212 12.942L21.8062 12.8169C29.1563 9.47775 35.341 8.65828 36.9435 11.1856C39.034 14.4814 32.5477 22.2192 22.4528 28.4661C12.3604 34.7155 2.48271 37.1101 0.392163 33.8144C-0.223756 32.8443 -0.0959717 31.4912 0.64773 29.9008L1.00297 28.9664C0.4765 28.7112 0.254156 28.0678 0.509724 27.5419L1.28665 25.9438L1.05919 25.8341L1.42977 25.0708L1.92301 25.3107L2.75616 23.5977C2.80217 23.5058 2.91462 23.465 3.00662 23.5109L3.15229 23.5824C3.24685 23.6284 3.28519 23.7407 3.23919 23.8352L2.40604 25.5456L3.6941 26.171L4.52725 24.4606C4.57069 24.3662 4.6857 24.3279 4.7777 24.3738L4.92338 24.4453C5.01794 24.4912 5.05627 24.6036 5.01027 24.698L4.17712 26.4085L4.70615 26.6663L4.33557 27.4296L4.09789 27.3071Z" fill="white"/>
<path fill-rule="evenodd" clip-rule="evenodd" d="M20.7815 30.1561C21.3642 34.6798 21.3796 38.767 20.1375 40C16.0254 38.5091 13.5234 36.5306 12.0641 34.2381C13.1554 33.8476 14.2313 33.411 15.2817 32.9464C17.1601 32.1167 18.9977 31.1772 20.7815 30.1561ZM27.0838 26.0562C27.0659 29.4974 25.8085 33.1736 22.8107 37.0004C22.844 34.1871 22.7315 31.5755 22.4427 29.1681C22.5501 29.1018 22.6574 29.0379 22.7622 28.9716C24.2394 28.0602 25.6859 27.0875 27.0838 26.0562ZM10.4157 5C13.6026 6.75383 16.8892 8.9876 19.6877 11.6145C20.5413 12.4059 21.3489 13.2484 22.1079 14.1317L22.1156 14.1419L22.1411 14.1699L22.1846 14.221C22.3328 14.3972 22.4811 14.5733 22.6267 14.752L22.6651 14.798C24.4285 16.9883 25.7958 19.3804 26.5165 21.9384C25.0367 23.2403 23.4369 24.4478 21.8421 25.5303C20.986 21.632 19.5241 18.3848 17.2726 15.7987C18.1875 17.6061 19.4015 22.0022 20.2295 26.5846L20.0966 26.6689C17.2879 28.4252 14.0167 30.1357 10.7556 31.2462C8.49128 23.0182 14.8881 12.2298 10.4157 5Z" fill="#76B420"/>
<path d="M53.5358 34.4881C50.5053 34.4881 48.1663 33.8169 46.5189 32.4746C44.8714 31.1322 44.0375 29.261 44.0172 26.861H49.0206C49.0409 28.2034 49.4273 29.139 50.1799 29.6678C50.9528 30.1966 52.1324 30.461 53.7189 30.461C56.1799 30.461 57.4104 29.6271 57.4104 27.9593C57.4104 27.2271 57.1358 26.6881 56.5867 26.3424C56.0578 25.9763 55.0307 25.6508 53.5053 25.3661L51.7358 25.0305C46.8951 24.2169 44.4748 21.9492 44.4748 18.2271C44.4748 16.2542 45.207 14.6881 46.6714 13.5288C48.1561 12.3695 50.2511 11.7898 52.9561 11.7898C55.8443 11.7898 58.0511 12.4 59.5765 13.6203C61.1019 14.8407 61.9155 16.5898 62.0172 18.8678H57.1358C57.0748 17.8102 56.7189 17.0373 56.068 16.5492C55.4375 16.061 54.4307 15.8169 53.0477 15.8169C50.8307 15.8169 49.7222 16.5492 49.7222 18.0136C49.7222 18.7458 49.9867 19.3051 50.5155 19.6915C51.0646 20.078 52.0307 20.4034 53.4138 20.6678L55.2443 21.0034C57.868 21.4712 59.7697 22.2339 60.9494 23.2915C62.1494 24.3288 62.7494 25.7729 62.7494 27.6237C62.7494 29.8407 61.9358 31.539 60.3087 32.7186C58.6816 33.8983 56.4239 34.4881 53.5358 34.4881ZM78.8562 32.1085C77.3511 33.6136 75.3477 34.3661 72.846 34.3661C70.3443 34.3661 68.3409 33.6136 66.8358 32.1085C65.3307 30.6034 64.5782 28.6102 64.5782 26.1288C64.5782 23.6271 65.3307 21.6237 66.8358 20.1186C68.3206 18.6339 70.324 17.8915 72.846 17.8915C75.368 17.8915 77.3714 18.6339 78.8562 20.1186C80.3409 21.6034 81.0833 23.6068 81.0833 26.1288C81.0833 28.6305 80.3409 30.6237 78.8562 32.1085ZM72.846 30.5525C73.9443 30.5525 74.7884 30.1763 75.3782 29.4237C75.968 28.6712 76.263 27.5729 76.263 26.1288C76.263 24.6847 75.968 23.5864 75.3782 22.8339C74.7884 22.0814 73.9443 21.7051 72.846 21.7051C71.7274 21.7051 70.8731 22.0814 70.2833 22.8339C69.6935 23.5864 69.3985 24.6847 69.3985 26.1288C69.3985 27.5729 69.6935 28.6712 70.2833 29.4237C70.8731 30.1763 71.7274 30.5525 72.846 30.5525ZM87.9436 34H83.1843V12.278H87.9436V34ZM105.885 34H101.095C100.851 33.5322 100.719 32.9424 100.698 32.2305C99.6407 33.6542 97.9627 34.3661 95.6644 34.3661C93.9356 34.3661 92.5424 33.939 91.4848 33.0847C90.4475 32.2305 89.9288 31.0508 89.9288 29.5458C89.9288 26.6169 91.9831 24.9797 96.0916 24.6339L98.5627 24.4203C99.9255 24.278 100.607 23.7593 100.607 22.8644C100.607 21.8068 99.8034 21.278 98.1966 21.278C97.2204 21.278 96.5288 21.4305 96.1221 21.7356C95.7356 22.0203 95.5017 22.5593 95.4204 23.3525H90.6916C90.9763 19.7119 93.4882 17.8915 98.2271 17.8915C102.905 17.8915 105.244 19.5085 105.244 22.7424V31.1017C105.244 32.4237 105.458 33.3898 105.885 34ZM97.0983 31.1627C98.1763 31.1627 99.0305 30.8881 99.661 30.339C100.292 29.7695 100.607 28.9254 100.607 27.8068V26.6475C100.322 26.9525 99.7933 27.1559 99.0204 27.2576L97.0678 27.4712C95.5424 27.6339 94.7797 28.2644 94.7797 29.3627C94.7797 29.9119 94.9831 30.3492 95.3899 30.6746C95.7966 31 96.3661 31.1627 97.0983 31.1627ZM116.886 18.0136C116.967 18.0136 117.313 18.0339 117.923 18.0746V22.4068H116.703C113.916 22.4068 112.523 23.8305 112.523 26.678V34H107.764V18.2576H112.401V21.1864C113.133 19.0712 114.628 18.0136 116.886 18.0136ZM134.854 26.5864V27.5322H123.2C123.362 28.6102 123.759 29.4339 124.39 30.0034C125.02 30.5729 125.823 30.8576 126.8 30.8576C128.346 30.8576 129.403 30.2678 129.973 29.0881H134.488C134.061 30.7153 133.156 32.0068 131.773 32.9627C130.39 33.8983 128.732 34.3661 126.8 34.3661C124.359 34.3661 122.386 33.6136 120.881 32.1085C119.376 30.6034 118.623 28.6102 118.623 26.1288C118.623 23.6271 119.366 21.6339 120.851 20.1492C122.315 18.6441 124.278 17.8915 126.739 17.8915C129.179 17.8915 131.152 18.6746 132.657 20.2407C134.122 21.8271 134.854 23.9424 134.854 26.5864ZM126.678 21.4C124.725 21.4 123.576 22.4373 123.23 24.5119H130.186C130.023 23.5356 129.637 22.7729 129.027 22.2237C128.417 21.6746 127.634 21.4 126.678 21.4ZM146.66 17.8915C148.328 17.8915 149.65 18.4 150.626 19.4169C151.623 20.4136 152.121 21.8373 152.121 23.6881V34H147.362V24.6339C147.362 22.8441 146.518 21.9492 144.83 21.9492C143.976 21.9492 143.264 22.2339 142.694 22.8034C142.125 23.3729 141.84 24.1763 141.84 25.2136V34H137.081V18.2576H141.718V20.4847C142.938 18.7559 144.586 17.8915 146.66 17.8915Z" fill="white"/>
</svg>
